<svg width="1920" height="6893" viewBox="0 0 1920 6893" fill="none" xmlns="http://www.w3.org/2000/svg">
<g clip-path="url(#clip0_8_9554)">
<rect width="1920" height="6893" fill="#0C0F29"/>
<path d="M0 6282C337.446 6282 611 6555.55 611 6893H0V6282Z" fill="#FBFBC7" fill-opacity="0.1"/>
<g filter="url(#filter0_f_8_9554)">
<rect x="1383" y="4199" width="693" height="693" rx="346.5" transform="rotate(90 1383 4199)" fill="#FBFBC7" fill-opacity="0.1"/>
</g>
<g filter="url(#filter1_f_8_9554)">
<rect x="1811" y="-656" width="1311" height="1701" rx="655.5" transform="rotate(90 1811 -656)" fill="url(#paint0_radial_8_9554)" fill-opacity="0.8"/>
</g>
<g filter="url(#filter2_f_8_9554)">
<rect x="849" y="5242" width="275" height="275" rx="137.5" transform="rotate(90 849 5242)" fill="#FBFBC7" fill-opacity="0.1"/>
</g>
<g filter="url(#filter3_f_8_9554)">
<rect x="1044" y="1510" width="427" height="427" rx="213.5" transform="rotate(90 1044 1510)" fill="#FBFBC7" fill-opacity="0.1"/>
</g>
<rect x="688" y="889" width="71" height="71" rx="35.5" transform="rotate(90 688 889)" fill="#FBFBC7" fill-opacity="0.2"/>
<rect x="587" y="548" width="289" height="289" rx="144.5" transform="rotate(90 587 548)" fill="#FBFBC7" fill-opacity="0.15"/>
<rect x="1875" y="1405" width="127" height="127" rx="63.5" transform="rotate(90 1875 1405)" fill="#FBFBC7" fill-opacity="0.1"/>
<rect x="204" y="1976" width="237" height="237" rx="118.5" transform="rotate(90 204 1976)" fill="#FBFBC7" fill-opacity="0.1"/>
<rect x="782" y="3446" width="237" height="237" rx="118.5" transform="rotate(90 782 3446)" fill="#FBFBC7" fill-opacity="0.1"/>
<rect x="1055" y="6218" width="237" height="237" rx="118.5" transform="rotate(90 1055 6218)" fill="#FBFBC7" fill-opacity="0.1"/>
<rect x="142" y="5751" width="125" height="125" rx="62.5" transform="rotate(90 142 5751)" fill="#FBFBC7" fill-opacity="0.1"/>
<rect x="901" y="2536" width="135" height="135" rx="67.5" transform="rotate(90 901 2536)" fill="#FBFBC7" fill-opacity="0.1"/>
<rect width="1925" height="6893" transform="translate(-5)" fill="url(#paint1_linear_8_9554)" fill-opacity="0.25"/>
</g>
<defs>
<filter id="filter0_f_8_9554" x="590" y="4099" width="893" height="893" filterUnits="userSpaceOnUse" color-interpolation-filters="sRGB">
<feFlood flood-opacity="0" result="BackgroundImageFix"/>
<feBlend mode="normal" in="SourceGraphic" in2="BackgroundImageFix" result="shape"/>
<feGaussianBlur stdDeviation="50" result="effect1_foregroundBlur_8_9554"/>
</filter>
<filter id="filter1_f_8_9554" x="-30" y="-796" width="1981" height="1591" filterUnits="userSpaceOnUse" color-interpolation-filters="sRGB">
<feFlood flood-opacity="0" result="BackgroundImageFix"/>
<feBlend mode="normal" in="SourceGraphic" in2="BackgroundImageFix" result="shape"/>
<feGaussianBlur stdDeviation="70" result="effect1_foregroundBlur_8_9554"/>
</filter>
<filter id="filter2_f_8_9554" x="474" y="5142" width="475" height="475" filterUnits="userSpaceOnUse" color-interpolation-filters="sRGB">
<feFlood flood-opacity="0" result="BackgroundImageFix"/>
<feBlend mode="normal" in="SourceGraphic" in2="BackgroundImageFix" result="shape"/>
<feGaussianBlur stdDeviation="50" result="effect1_foregroundBlur_8_9554"/>
</filter>
<filter id="filter3_f_8_9554" x="517" y="1410" width="627" height="627" filterUnits="userSpaceOnUse" color-interpolation-filters="sRGB">
<feFlood flood-opacity="0" result="BackgroundImageFix"/>
<feBlend mode="normal" in="SourceGraphic" in2="BackgroundImageFix" result="shape"/>
<feGaussianBlur stdDeviation="50" result="effect1_foregroundBlur_8_9554"/>
</filter>
<radialGradient id="paint0_radial_8_9554" cx="0" cy="0" r="1" gradientUnits="userSpaceOnUse" gradientTransform="translate(2467 194.5) scale(680 882.288)">
<stop stop-color="#FBFBC7"/>
<stop offset="1" stop-color="#959576" stop-opacity="0"/>
</radialGradient>
<linearGradient id="paint1_linear_8_9554" x1="0" y1="3446.5" x2="1925" y2="3446.5" gradientUnits="userSpaceOnUse">
<stop stop-color="#0C0F29" stop-opacity="0.7"/>
<stop offset="1" stop-color="#F19D52" stop-opacity="0.8"/>
</linearGradient>
<clipPath id="clip0_8_9554">
<rect width="1920" height="6893" fill="white"/>
</clipPath>
</defs>
</svg>
