<svg width="1192" height="686" viewBox="0 0 1192 686" fill="none" xmlns="http://www.w3.org/2000/svg">
<g clip-path="url(#clip0_45_8262)">
<rect x="795" width="397" height="56" rx="28" fill="#F19D52" fill-opacity="0.4"/>
<rect x="795" width="397" height="56" rx="28" fill="url(#paint0_linear_45_8262)"/>
<path d="M1094.36 15.7148V28.457H1091.35V15.7148H1094.36ZM1094.41 29.4961V35.8672H1081.04V37.8633H1095.15V40.2148H1078.06V33.6523H1091.38V31.8203H1078V29.4961H1094.41ZM1088.39 16.9453V19.4062H1083.23C1083.35 22.1406 1085.44 24.7246 1089.27 25.7773L1087.79 28.1289C1084.91 27.2949 1082.84 25.5312 1081.72 23.2891C1080.62 25.7637 1078.46 27.7324 1075.41 28.6484L1074.01 26.2422C1077.84 25.1074 1079.97 22.332 1080.14 19.4062H1074.8V16.9453H1088.39ZM1105.33 17.4375C1109.24 17.4102 1112.11 19.8984 1112.14 23.3984C1112.11 26.9258 1109.24 29.3867 1105.33 29.3867C1101.45 29.3867 1098.55 26.9258 1098.55 23.3984C1098.55 19.8984 1101.45 17.4102 1105.33 17.4375ZM1105.33 20.0625C1103.17 20.0625 1101.56 21.3477 1101.56 23.3984C1101.56 25.4766 1103.17 26.7344 1105.33 26.7344C1107.52 26.7344 1109.16 25.4766 1109.16 23.3984C1109.16 21.3477 1107.52 20.0625 1105.33 20.0625ZM1117.91 15.7148V40.4609H1114.87V15.7148H1117.91ZM1097.43 32.8047C1101.89 32.8047 1108.07 32.75 1113.4 31.9844L1113.64 34.1992C1108.09 35.2656 1102.16 35.293 1097.81 35.293L1097.43 32.8047ZM1140.37 15.7148V25.9141H1143.84V28.457H1140.37V40.4336H1137.31V15.7148H1140.37ZM1120.52 33.5703C1122.39 33.5703 1124.56 33.5703 1126.83 33.5156V31.1914C1124.14 30.7402 1122.38 29.0449 1122.4 26.7344C1122.38 23.9453 1124.84 22.0859 1128.39 22.0859C1131.89 22.0859 1134.38 23.9453 1134.41 26.7344C1134.38 29.0586 1132.59 30.7539 1129.9 31.1914V33.4062C1131.97 33.2969 1134.05 33.1328 1135.99 32.8594L1136.19 35.0742C1130.88 36.0312 1125.17 36.0859 1120.96 36.0859L1120.52 33.5703ZM1135.72 18.5586V20.9648H1120.98V18.5586H1126.83V15.8242H1129.9V18.5586H1135.72ZM1128.39 24.4102C1126.51 24.4375 1125.28 25.2852 1125.28 26.7344C1125.28 28.1562 1126.51 29.0039 1128.39 28.9766C1130.25 29.0039 1131.48 28.1562 1131.48 26.7344C1131.48 25.2852 1130.25 24.4375 1128.39 24.4102ZM1157.01 17.793V19.7617H1161.98V15.7422H1165.02V33.7344H1161.98V27.5H1157.01V29.6328H1145.38V17.793H1157.01ZM1148.42 20.1992V27.2539H1154V20.1992H1148.42ZM1165.56 37.4805V39.9414H1148.72V32.0664H1151.81V37.4805H1165.56ZM1157.01 25.0664H1161.98V22.25H1157.01V25.0664Z" fill="#FDFDFD"/>
<path d="M-160 45H810C832.091 45 850 62.9086 850 85V646C850 668.091 832.091 686 810 686H-160V45Z" fill="#FBFBC7" fill-opacity="0.1"/>
<g filter="url(#filter1_d_45_8262)">
<g clip-path="url(#clip1_45_8262)">
<path d="M-73.7871 0H919.268C941.36 0 959.268 17.9086 959.268 40V541.094C959.268 563.185 941.36 581.094 919.268 581.094H-73.7871V0Z" fill="#0C0F29"/>
<rect width="1035.75" height="581.094" transform="translate(-76.4775)" fill="url(#paint1_linear_45_8262)" fill-opacity="0.25"/>
<path d="M227.265 215.654H677.501L758.027 301.775C767.537 314.524 758.452 332.665 742.546 332.685H164.401C148.433 332.706 139.318 314.463 148.922 301.706L227.265 215.654Z" fill="url(#paint2_linear_45_8262)"/>
<g filter="url(#filter2_d_45_8262)">
<g filter="url(#filter3_i_45_8262)">
<rect x="211.307" y="214.473" width="483.604" height="37.7211" rx="18.8606" fill="#FDFDFD"/>
<rect x="211.307" y="214.473" width="483.604" height="37.7211" rx="18.8606" fill="black" fill-opacity="0.1"/>
<path d="M232.079 230.205C232.079 232.426 233.137 234.608 235.041 235.441L234.155 236.618C232.8 235.957 231.848 234.688 231.338 233.127C230.816 234.774 229.844 236.142 228.469 236.843L227.543 235.653C229.487 234.74 230.572 232.44 230.585 230.205V228.301H232.079V230.205ZM237.686 227.335V239.303H236.231V232.387H233.719V231.197H236.231V227.335H237.686ZM244.462 227.454C247.186 227.454 248.759 228.182 248.772 229.504C248.759 230.84 247.186 231.554 244.462 231.567C241.737 231.554 240.151 230.84 240.151 229.504C240.151 228.182 241.737 227.454 244.462 227.454ZM244.462 228.552C242.637 228.552 241.685 228.882 241.698 229.504C241.685 230.165 242.637 230.469 244.462 230.482C246.313 230.469 247.252 230.165 247.252 229.504C247.252 228.882 246.313 228.552 244.462 228.552ZM249.923 232.188V233.339H245.189V234.251H248.561V237.174H241.764V238.06H248.891V239.184H240.323V236.129H247.119V235.336H240.309V234.251H243.721V233.339H239.027V232.188H249.923ZM253.662 238.112V236.869L257.048 233.603C258.013 232.638 258.516 232.069 258.516 231.263C258.516 230.377 257.815 229.808 256.876 229.808C255.884 229.808 255.249 230.43 255.263 231.395H253.623C253.61 229.583 254.972 228.406 256.889 228.406C258.846 228.406 260.168 229.57 260.168 231.183C260.168 232.268 259.64 233.14 257.762 234.912L256.056 236.605V236.671H260.314V238.112H253.662ZM265.014 238.245C262.713 238.245 261.337 236.46 261.337 233.326C261.337 230.205 262.713 228.406 265.014 228.406C267.301 228.406 268.69 230.205 268.69 233.326C268.69 236.46 267.314 238.245 265.014 238.245ZM265.014 236.803C266.217 236.803 266.957 235.626 266.957 233.326C266.957 231.038 266.204 229.835 265.014 229.835C263.823 229.835 263.07 231.038 263.07 233.326C263.07 235.626 263.81 236.803 265.014 236.803ZM279.684 227.335V239.289H278.282V233.193H276.933V238.681H275.584V227.56H276.933V232.016H278.282V227.335H279.684ZM274.236 228.75V229.94H271.247V235.256C272.55 235.243 273.621 235.177 274.831 234.952L274.937 236.155C273.495 236.446 272.239 236.486 270.573 236.499H269.766V228.75H274.236ZM293.063 227.349V229.94H294.743V231.157H293.063V234.079H291.596V227.349H293.063ZM293.063 234.661V239.131H285.328V234.661H293.063ZM286.769 235.812V237.967H291.622V235.812H286.769ZM285.632 227.93V232.135C287.166 232.122 288.779 231.983 290.524 231.646L290.696 232.85C288.713 233.246 286.875 233.352 285.142 233.352H284.151V227.93H285.632ZM299.376 229.054C299.363 230.681 300.315 232.162 302.193 232.757L301.4 233.907C300.097 233.451 299.185 232.585 298.675 231.448C298.147 232.75 297.148 233.775 295.7 234.278L294.92 233.088C296.903 232.44 297.895 230.84 297.895 229.12V227.983H299.376V229.054ZM305.01 227.335V234.37H303.542V230.853H301.161V229.649H303.542V227.335H305.01ZM300.963 234.688C303.502 234.688 305.049 235.534 305.049 236.988C305.049 238.443 303.502 239.276 300.963 239.276C298.437 239.276 296.89 238.443 296.903 236.988C296.89 235.534 298.437 234.688 300.963 234.688ZM300.963 235.825C299.297 235.825 298.358 236.235 298.358 236.988C298.358 237.716 299.297 238.126 300.963 238.126C302.629 238.126 303.581 237.716 303.581 236.988C303.581 236.235 302.629 235.825 300.963 235.825ZM313.523 228.539V238.112H311.791V230.218H311.738L309.503 231.646V230.073L311.87 228.539H313.523ZM319.042 238.245C316.741 238.245 315.366 236.46 315.366 233.326C315.366 230.205 316.741 228.406 319.042 228.406C321.33 228.406 322.719 230.205 322.719 233.326C322.719 236.46 321.343 238.245 319.042 238.245ZM319.042 236.803C320.246 236.803 320.986 235.626 320.986 233.326C320.986 231.038 320.232 229.835 319.042 229.835C317.852 229.835 317.099 231.038 317.099 233.326C317.099 235.626 317.839 236.803 319.042 236.803ZM327.352 238.245C325.051 238.245 323.676 236.46 323.676 233.326C323.676 230.205 325.051 228.406 327.352 228.406C329.64 228.406 331.028 230.205 331.028 233.326C331.028 236.46 329.653 238.245 327.352 238.245ZM327.352 236.803C328.555 236.803 329.296 235.626 329.296 233.326C329.296 231.038 328.542 229.835 327.352 229.835C326.162 229.835 325.408 231.038 325.408 233.326C325.408 235.626 326.149 236.803 327.352 236.803ZM341.745 227.335V234.37H340.277V232.717H337.87V233.643H332.25V228.234H337.87V229.16H340.277V227.335H341.745ZM333.718 229.398V232.466H336.415V229.398H333.718ZM337.698 234.688C340.237 234.688 341.784 235.534 341.784 236.988C341.784 238.443 340.237 239.276 337.698 239.276C335.172 239.276 333.625 238.443 333.639 236.988C333.625 235.534 335.172 234.688 337.698 234.688ZM337.698 235.812C336.032 235.812 335.093 236.222 335.093 236.988C335.093 237.729 336.032 238.139 337.698 238.139C339.364 238.139 340.316 237.729 340.316 236.988C340.316 236.222 339.364 235.812 337.698 235.812ZM337.87 231.527H340.277V230.324H337.87V231.527Z" fill="black"/>
<g filter="url(#filter4_i_45_8262)">
<rect x="660.092" y="217.858" width="30.9507" height="30.9507" rx="15.4753" fill="url(#paint3_linear_45_8262)"/>
<path d="M682.724 239.325L679.929 236.538C680.831 235.389 681.32 233.97 681.319 232.51C681.319 231.209 680.933 229.937 680.21 228.856C679.488 227.774 678.46 226.931 677.259 226.434C676.057 225.936 674.735 225.806 673.459 226.059C672.183 226.313 671.011 226.939 670.091 227.859C669.172 228.779 668.545 229.951 668.291 231.227C668.038 232.502 668.168 233.825 668.666 235.027C669.163 236.228 670.006 237.255 671.088 237.978C672.169 238.701 673.441 239.086 674.742 239.086C676.202 239.088 677.621 238.599 678.77 237.697L681.557 240.492C681.633 240.569 681.724 240.63 681.825 240.672C681.925 240.714 682.032 240.735 682.141 240.735C682.249 240.735 682.357 240.714 682.457 240.672C682.557 240.63 682.648 240.569 682.724 240.492C682.801 240.416 682.863 240.325 682.904 240.225C682.946 240.125 682.968 240.017 682.968 239.909C682.968 239.8 682.946 239.693 682.904 239.592C682.863 239.492 682.801 239.401 682.724 239.325ZM669.809 232.51C669.809 231.534 670.099 230.58 670.641 229.769C671.183 228.958 671.953 228.326 672.854 227.953C673.756 227.579 674.747 227.482 675.704 227.672C676.661 227.862 677.54 228.332 678.23 229.022C678.919 229.712 679.389 230.591 679.58 231.547C679.77 232.504 679.672 233.496 679.299 234.397C678.926 235.299 678.293 236.069 677.482 236.611C676.671 237.153 675.717 237.442 674.742 237.442C673.434 237.442 672.179 236.923 671.254 235.998C670.329 235.073 669.809 233.818 669.809 232.51Z" fill="#FDFDFD"/>
</g>
</g>
</g>
<path d="M439.848 150.595C437.189 150.595 435.185 151.31 433.835 152.739C432.486 154.128 431.811 155.973 431.811 158.275V181.553H420.5V157.68C420.5 155.259 420.916 153.076 421.75 151.131C422.623 149.147 423.873 147.46 425.5 146.071C427.167 144.682 429.192 143.61 431.573 142.856C433.994 142.062 436.752 141.665 439.848 141.665C442.944 141.665 445.683 142.062 448.064 142.856C450.485 143.61 452.509 144.682 454.137 146.071C455.803 147.46 457.054 149.147 457.887 151.131C458.76 153.076 459.197 155.259 459.197 157.68V181.553H447.885V158.275C447.885 155.973 447.211 154.128 445.861 152.739C444.512 151.31 442.507 150.595 439.848 150.595Z" fill="#FFF7DE"/>
<path d="M415.705 142.643V181.341H404.988V177.173C403.52 178.84 401.714 180.15 399.571 181.102C397.467 182.055 395.007 182.531 392.189 182.531C389.688 182.531 387.346 181.996 385.163 180.924C383.02 179.852 381.155 178.384 379.567 176.518C377.98 174.653 376.729 172.47 375.817 169.97C374.904 167.469 374.447 164.81 374.447 161.992C374.447 159.134 374.904 156.475 375.817 154.014C376.729 151.514 377.98 149.331 379.567 147.466C381.155 145.6 383.02 144.132 385.163 143.06C387.346 141.988 389.688 141.453 392.189 141.453C394.808 141.453 397.13 141.869 399.154 142.703C401.178 143.497 402.925 144.648 404.393 146.156V142.643H415.705ZM395.106 173.72C396.535 173.72 397.824 173.423 398.975 172.827C400.126 172.232 401.099 171.418 401.893 170.386C402.726 169.354 403.341 168.124 403.738 166.695C404.175 165.266 404.393 163.718 404.393 162.051C404.393 160.384 404.175 158.837 403.738 157.408C403.341 155.979 402.726 154.749 401.893 153.717C401.099 152.685 400.126 151.871 398.975 151.276C397.824 150.68 396.535 150.383 395.106 150.383C393.677 150.383 392.387 150.68 391.236 151.276C390.085 151.871 389.093 152.685 388.259 153.717C387.465 154.749 386.85 155.979 386.414 157.408C385.977 158.837 385.759 160.384 385.759 162.051C385.759 163.718 385.977 165.266 386.414 166.695C386.85 168.124 387.465 169.354 388.259 170.386C389.093 171.418 390.085 172.232 391.236 172.827C392.387 173.423 393.677 173.72 395.106 173.72Z" fill="#FFF7DE"/>
<path d="M350.62 127.045C353.676 127.045 356.355 127.482 358.657 128.355C360.999 129.228 362.944 130.419 364.492 131.927C366.079 133.395 367.27 135.102 368.064 137.047C368.858 138.952 369.255 140.956 369.255 143.06C369.255 143.893 369.116 144.786 368.838 145.739C368.6 146.652 368.242 147.545 367.766 148.418C367.29 149.251 366.714 150.025 366.04 150.74C365.365 151.415 364.631 151.931 363.837 152.288C365.186 152.883 366.337 153.657 367.29 154.61C368.282 155.562 369.096 156.614 369.731 157.765C370.366 158.916 370.842 160.146 371.16 161.456C371.477 162.726 371.636 164.016 371.636 165.326C371.636 167.429 371.239 169.454 370.445 171.398C369.651 173.303 368.461 174.99 366.873 176.459C365.325 177.967 363.38 179.158 361.039 180.031C358.737 180.904 356.058 181.341 353.002 181.341H335.32C331.351 181.341 328.473 180.448 326.687 178.662C324.901 176.875 324.008 173.998 324.008 170.029V127.045H350.62ZM335.32 169.434C335.32 170.505 335.538 171.279 335.975 171.756C336.451 172.192 337.225 172.41 338.297 172.41H354.014C355.125 172.41 356.137 172.232 357.05 171.875C357.963 171.478 358.737 170.962 359.372 170.327C360.047 169.652 360.562 168.898 360.92 168.064C361.277 167.191 361.455 166.278 361.455 165.326C361.455 163.421 360.781 161.833 359.431 160.563C358.082 159.253 356.276 158.598 354.014 158.598H335.32V169.434ZM351.632 149.787C352.744 149.787 353.756 149.589 354.669 149.192C355.581 148.755 356.355 148.2 356.99 147.525C357.665 146.85 358.181 146.076 358.538 145.203C358.896 144.33 359.074 143.417 359.074 142.465C359.074 140.559 358.399 139.012 357.05 137.821C355.7 136.59 353.895 135.975 351.632 135.975H335.32V149.787H351.632Z" fill="#FFF7DE"/>
<path d="M531.683 128.825C546.419 128.825 558.365 140.77 558.365 155.506C558.365 170.241 546.419 182.187 531.683 182.187H524.861C521.16 182.187 518.16 179.188 518.16 175.487V171.953H528.759C537.843 171.953 545.206 164.589 545.207 155.506C545.207 146.422 537.843 139.058 528.759 139.058H518.16V135.525C518.16 131.825 521.16 128.825 524.861 128.825H531.683Z" fill="url(#paint4_linear_45_8262)"/>
<path d="M531.683 128.825C546.419 128.825 558.365 140.77 558.365 155.506C558.365 170.241 546.419 182.187 531.683 182.187H524.861C521.16 182.187 518.16 179.188 518.16 175.487V171.953H528.759C537.843 171.953 545.206 164.589 545.207 155.506C545.207 146.422 537.843 139.058 528.759 139.058H518.16V135.525C518.16 131.825 521.16 128.825 524.861 128.825H531.683Z" fill="url(#paint5_linear_45_8262)"/>
<path d="M531.683 128.825C546.419 128.825 558.365 140.77 558.365 155.506C558.365 170.241 546.419 182.187 531.683 182.187H524.861C521.16 182.187 518.16 179.188 518.16 175.487V171.953H528.759C537.843 171.953 545.206 164.589 545.207 155.506C545.207 146.422 537.843 139.058 528.759 139.058H518.16V135.525C518.16 131.825 521.16 128.825 524.861 128.825H531.683Z" fill="url(#paint6_linear_45_8262)"/>
<path d="M565.192 142.829L574.695 136.25" stroke="#316C6D" stroke-width="2.924" stroke-linecap="round"/>
<path d="M565.192 142.829L574.695 136.25" stroke="url(#paint7_linear_45_8262)" stroke-width="2.924" stroke-linecap="round"/>
<path d="M565.192 142.829L574.695 136.25" stroke="url(#paint8_linear_45_8262)" stroke-width="2.924" stroke-linecap="round"/>
<path d="M565.239 167.195L574.742 173.774" stroke="#316C6D" stroke-width="2.924" stroke-linecap="round"/>
<path d="M565.239 167.195L574.742 173.774" stroke="url(#paint9_linear_45_8262)" stroke-width="2.924" stroke-linecap="round"/>
<path d="M565.239 167.195L574.742 173.774" stroke="url(#paint10_linear_45_8262)" stroke-width="2.924" stroke-linecap="round"/>
<path d="M567.385 154.526H579.812" stroke="#316C6D" stroke-width="2.924" stroke-linecap="round"/>
<path d="M567.385 154.526H579.812" stroke="url(#paint11_linear_45_8262)" stroke-width="2.924" stroke-linecap="round"/>
<path d="M567.385 154.526H579.812" stroke="url(#paint12_linear_45_8262)" stroke-width="2.924" stroke-linecap="round"/>
<path d="M490.631 147.947L472.356 142.099" stroke="url(#paint13_linear_45_8262)" stroke-width="1.462"/>
<circle cx="471.626" cy="141.368" r="3.655" fill="url(#paint14_linear_45_8262)"/>
<circle cx="471.626" cy="141.368" r="3.655" fill="#ED702D"/>
<path d="M491.362 163.298L472.356 169.146" stroke="url(#paint15_linear_45_8262)" stroke-width="1.462"/>
<circle cx="3.655" cy="3.655" r="3.655" transform="matrix(1 0 0 -1 467.971 173.532)" fill="url(#paint16_linear_45_8262)"/>
<circle cx="3.655" cy="3.655" r="3.655" transform="matrix(1 0 0 -1 467.971 173.532)" fill="#ED702D"/>
<path d="M507.444 141.368H501.596C493.926 141.368 487.707 147.586 487.707 155.257V155.257C487.707 162.928 493.926 169.146 501.596 169.146H507.444V141.368Z" fill="url(#paint17_linear_45_8262)"/>
<path d="M507.444 141.368H501.596C493.926 141.368 487.707 147.586 487.707 155.257V155.257C487.707 162.928 493.926 169.146 501.596 169.146H507.444V141.368Z" fill="url(#paint18_linear_45_8262)"/>
<path d="M505.251 129.306C505.238 120.608 513.88 114.547 522.053 117.522C530.227 120.497 532.951 130.694 527.35 137.349L512.672 154.787L527.35 172.226C532.951 178.881 530.227 189.079 522.053 192.054C513.88 195.029 505.238 188.968 505.251 180.27L505.289 154.788L505.251 129.306Z" fill="url(#paint19_linear_45_8262)"/>
<g filter="url(#filter5_d_45_8262)">
<g filter="url(#filter6_i_45_8262)">
<rect x="141.182" y="294.24" width="623.849" height="48.6603" rx="24.3301" fill="#FDFDFD"/>
<path d="M167.979 314.763C167.979 317.629 169.343 320.444 171.8 321.518L170.657 323.036C168.908 322.184 167.68 320.546 167.024 318.533C166.35 320.657 165.096 322.422 163.322 323.326L162.128 321.791C164.635 320.614 166.034 317.646 166.051 314.763V312.307H167.979V314.763ZM175.212 311.061V326.499H173.335V317.578H170.094V316.042H173.335V311.061H175.212ZM183.952 311.215C187.466 311.215 189.496 312.153 189.513 313.859C189.496 315.582 187.466 316.503 183.952 316.52C180.438 316.503 178.391 315.582 178.391 313.859C178.391 312.153 180.438 311.215 183.952 311.215ZM183.952 312.631C181.598 312.631 180.37 313.057 180.387 313.859C180.37 314.712 181.598 315.104 183.952 315.121C186.34 315.104 187.552 314.712 187.552 313.859C187.552 313.057 186.34 312.631 183.952 312.631ZM190.997 317.322V318.806H184.89V319.983H189.24V323.753H180.472V324.896H189.667V326.346H178.613V322.405H187.381V321.382H178.596V319.983H182.997V318.806H176.941V317.322H190.997ZM195.821 324.964V323.361L200.188 319.147C201.434 317.902 202.082 317.168 202.082 316.128C202.082 314.985 201.178 314.251 199.967 314.251C198.687 314.251 197.868 315.053 197.886 316.298H195.77C195.753 313.961 197.51 312.443 199.984 312.443C202.508 312.443 204.214 313.944 204.214 316.025C204.214 317.424 203.532 318.55 201.11 320.836L198.909 323.019V323.105H204.402V324.964H195.821ZM210.464 325.135C207.496 325.135 205.722 322.832 205.722 318.789C205.722 314.763 207.496 312.443 210.464 312.443C213.415 312.443 215.207 314.763 215.207 318.789C215.207 322.832 213.433 325.135 210.464 325.135ZM210.464 323.275C212.017 323.275 212.972 321.757 212.972 318.789C212.972 315.838 212 314.285 210.464 314.285C208.929 314.285 207.957 315.838 207.957 318.789C207.957 321.757 208.912 323.275 210.464 323.275ZM229.389 311.061V326.482H227.581V318.618H225.841V325.698H224.101V311.351H225.841V317.1H227.581V311.061H229.389ZM222.361 312.887V314.422H218.506V321.279C220.186 321.262 221.568 321.177 223.129 320.887L223.265 322.439C221.406 322.815 219.785 322.866 217.636 322.883H216.595V312.887H222.361ZM246.649 311.078V314.422H248.815V315.991H246.649V319.761H244.755V311.078H246.649ZM246.649 320.512V326.278H236.669V320.512H246.649ZM238.529 321.996V324.776H244.789V321.996H238.529ZM237.062 311.829V317.254C239.041 317.237 241.122 317.057 243.373 316.622L243.595 318.175C241.036 318.687 238.665 318.823 236.431 318.823H235.151V311.829H237.062ZM254.792 313.279C254.775 315.377 256.003 317.288 258.426 318.055L257.402 319.539C255.722 318.951 254.545 317.834 253.888 316.367C253.206 318.047 251.918 319.369 250.05 320.017L249.044 318.482C251.602 317.646 252.882 315.582 252.882 313.364V311.897H254.792V313.279ZM262.059 311.061V320.136H260.166V315.599H257.095V314.047H260.166V311.061H262.059ZM256.839 320.546C260.115 320.546 262.11 321.638 262.11 323.514C262.11 325.39 260.115 326.465 256.839 326.465C253.581 326.465 251.585 325.39 251.602 323.514C251.585 321.638 253.581 320.546 256.839 320.546ZM256.839 322.013C254.69 322.013 253.479 322.542 253.479 323.514C253.479 324.452 254.69 324.981 256.839 324.981C258.989 324.981 260.217 324.452 260.217 323.514C260.217 322.542 258.989 322.013 256.839 322.013ZM273.041 312.614V324.964H270.807V314.78H270.738L267.856 316.622V314.593L270.909 312.614H273.041ZM280.162 325.135C277.193 325.135 275.419 322.832 275.419 318.789C275.419 314.763 277.193 312.443 280.162 312.443C283.113 312.443 284.904 314.763 284.904 318.789C284.904 322.832 283.13 325.135 280.162 325.135ZM280.162 323.275C281.714 323.275 282.669 321.757 282.669 318.789C282.669 315.838 281.697 314.285 280.162 314.285C278.626 314.285 277.654 315.838 277.654 318.789C277.654 321.757 278.609 323.275 280.162 323.275ZM290.881 325.135C287.913 325.135 286.139 322.832 286.139 318.789C286.139 314.763 287.913 312.443 290.881 312.443C293.832 312.443 295.623 314.763 295.623 318.789C295.623 322.832 293.849 325.135 290.881 325.135ZM290.881 323.275C292.433 323.275 293.389 321.757 293.389 318.789C293.389 315.838 292.416 314.285 290.881 314.285C289.346 314.285 288.373 315.838 288.373 318.789C288.373 321.757 289.329 323.275 290.881 323.275ZM309.447 311.061V320.136H307.554V318.004H304.449V319.198H297.199V312.221H304.449V313.415H307.554V311.061H309.447ZM299.093 313.723V317.68H302.573V313.723H299.093ZM304.227 320.546C307.503 320.546 309.499 321.638 309.499 323.514C309.499 325.39 307.503 326.465 304.227 326.465C300.969 326.465 298.974 325.39 298.991 323.514C298.974 321.638 300.969 320.546 304.227 320.546ZM304.227 321.996C302.078 321.996 300.867 322.525 300.867 323.514C300.867 324.469 302.078 324.998 304.227 324.998C306.377 324.998 307.605 324.469 307.605 323.514C307.605 322.525 306.377 321.996 304.227 321.996ZM304.449 316.469H307.554V314.917H304.449V316.469Z" fill="black"/>
<g filter="url(#filter7_i_45_8262)">
<rect x="720.114" y="298.606" width="39.9264" height="39.9264" rx="19.9632" fill="url(#paint20_linear_45_8262)"/>
<path d="M749.313 326.297L745.708 322.702C746.871 321.219 747.502 319.389 747.5 317.505C747.5 315.827 747.002 314.187 746.07 312.792C745.138 311.396 743.813 310.309 742.262 309.667C740.712 309.025 739.006 308.857 737.361 309.184C735.715 309.511 734.203 310.319 733.017 311.506C731.83 312.692 731.022 314.204 730.695 315.85C730.367 317.496 730.535 319.202 731.178 320.752C731.82 322.302 732.907 323.627 734.302 324.559C735.697 325.492 737.338 325.989 739.016 325.989C740.9 325.991 742.73 325.36 744.212 324.197L747.807 327.803C747.906 327.902 748.023 327.981 748.152 328.035C748.282 328.089 748.42 328.116 748.56 328.116C748.7 328.116 748.839 328.089 748.968 328.035C749.097 327.981 749.215 327.902 749.313 327.803C749.413 327.704 749.492 327.587 749.545 327.457C749.599 327.328 749.627 327.19 749.627 327.05C749.627 326.91 749.599 326.771 749.545 326.642C749.492 326.513 749.413 326.395 749.313 326.297ZM732.653 317.505C732.653 316.247 733.026 315.016 733.725 313.97C734.424 312.924 735.418 312.108 736.581 311.626C737.743 311.145 739.023 311.019 740.257 311.264C741.491 311.51 742.625 312.116 743.515 313.006C744.405 313.896 745.011 315.029 745.257 316.264C745.502 317.498 745.376 318.777 744.894 319.94C744.413 321.103 743.597 322.097 742.551 322.796C741.504 323.495 740.274 323.868 739.016 323.868C737.328 323.868 735.71 323.198 734.516 322.004C733.323 320.811 732.653 319.193 732.653 317.505Z" fill="#FDFDFD"/>
</g>
</g>
</g>
<g filter="url(#filter8_d_45_8262)">
<g filter="url(#filter9_i_45_8262)">
<rect x="141.182" y="354.545" width="623.849" height="48.6603" rx="24.3301" fill="#FDFDFD"/>
<path d="M164.925 372.731V378.463C166.375 378.446 167.783 378.343 169.309 377.985L169.497 379.52C167.569 379.947 165.915 380.049 164.072 380.049H163.049V372.731H164.925ZM175.536 371.384V381.772H173.727V371.384H175.536ZM172.397 371.674V380.407H170.606V376.245H167.655V374.727H170.606V371.674H172.397ZM171.152 381.465C171.152 383.205 173.13 384.843 176.252 385.235L175.536 386.702C173.088 386.352 171.169 385.278 170.23 383.768C169.267 385.278 167.356 386.352 164.908 386.702L164.209 385.235C167.314 384.843 169.275 383.205 169.292 381.465V381.005H171.152V381.465ZM189.701 371.81V373.243H187.586V375.58H189.616V377.013H178.289V375.58H180.319V373.243H178.204V371.81H189.701ZM190.997 377.985V379.486H176.941V377.985H190.997ZM189.24 380.527V384.194H180.472V385.235H189.667V386.651H178.613V382.881H187.381V381.909H178.596V380.527H189.24ZM182.212 375.58H185.675V373.243H182.212V375.58ZM204.446 371.384V380.817H202.536V371.384H204.446ZM204.446 381.533V386.787H202.536V383.086H193.921V381.533H204.446ZM199.499 372.254V376.825H194.279V378.548C196.923 378.54 198.791 378.454 201 378.122L201.239 379.64C198.8 380.032 196.719 380.1 193.734 380.1H192.42V375.358H197.623V373.789H192.386V372.254H199.499ZM214.227 373.482C214.227 375.87 216.564 378.258 219.789 378.821L218.936 380.407C216.351 379.862 214.236 378.301 213.238 376.228C212.215 378.284 210.099 379.853 207.524 380.407L206.688 378.821C209.878 378.241 212.198 375.853 212.215 373.482V372.339H214.227V373.482ZM220.351 383.256V384.826H206.261V383.256H220.351ZM234.994 378.36V379.793H220.904V378.36H234.994ZM233.289 380.715V384.229H224.452V385.303H233.749V386.617H222.559V383H231.412V382.045H222.542V380.715H233.289ZM233.254 371.708V375.188H224.572V376.194H233.527V377.491H222.695V373.959H231.361V373.021H222.644V371.708H233.254ZM253.346 377.729V379.248H239.29V377.729H253.346ZM251.589 380.288V384.075H242.821V385.201H252.015V386.651H240.961V382.727H249.729V381.687H240.944V380.288H251.589ZM252.083 371.895V373.396H247.495C247.879 374.539 249.781 375.537 252.68 375.733L252.083 377.201C249.32 376.979 247.23 376.049 246.301 374.676C245.371 376.041 243.307 376.979 240.569 377.201L239.972 375.733C242.846 375.537 244.723 374.539 245.124 373.396H240.569V371.895H252.083ZM261.814 373.004C261.814 373.831 261.745 374.642 261.626 375.426H264.969V371.367H266.863V386.77H264.969V381.124H261.046V379.589H264.969V376.945H261.268C260.406 379.802 258.445 382.258 254.837 384.024L253.847 382.523C257.66 380.604 259.545 377.985 259.903 374.505H254.564V373.004H261.814ZM282.7 383.376V384.928H268.61V383.376H274.682V380.373H270.162V372.39H272.055V374.915H279.203V372.39H281.096V380.373H276.559V383.376H282.7ZM272.055 378.838H279.203V376.433H272.055V378.838ZM295.756 375.733V377.235H285.078V371.929H286.954V375.733H295.756ZM297.343 379.026V380.527H283.253V379.026H297.343ZM295.859 384.894V386.429H284.941V381.892H286.835V384.894H295.859ZM306.636 385.44C303.992 385.44 302.116 384.007 302.064 381.926H304.299C304.367 382.915 305.357 383.563 306.636 383.563C308.001 383.563 308.973 382.813 308.973 381.721C308.973 380.612 308.018 379.81 306.414 379.81H305.306V378.105H306.414C307.728 378.105 308.649 377.371 308.632 376.296C308.649 375.256 307.864 374.556 306.653 374.556C305.493 374.556 304.487 375.205 304.453 376.245H302.32C302.372 374.164 304.248 372.748 306.67 372.748C309.178 372.748 310.798 374.284 310.781 376.177C310.798 377.559 309.877 378.565 308.53 378.838V378.94C310.27 379.179 311.259 380.288 311.242 381.84C311.259 383.922 309.314 385.44 306.636 385.44ZM317.304 385.44C314.336 385.44 312.562 383.137 312.562 379.094C312.562 375.068 314.336 372.748 317.304 372.748C320.256 372.748 322.047 375.068 322.047 379.094C322.047 383.137 320.273 385.44 317.304 385.44ZM317.304 383.58C318.857 383.58 319.812 382.062 319.812 379.094C319.812 376.143 318.84 374.591 317.304 374.591C315.769 374.591 314.797 376.143 314.797 379.094C314.797 382.062 315.752 383.58 317.304 383.58ZM336.229 371.367V386.787H334.421V378.923H332.681V386.003H330.941V371.657H332.681V377.405H334.421V371.367H336.229ZM329.201 373.192V374.727H325.346V381.585C327.026 381.567 328.408 381.482 329.969 381.192L330.105 382.744C328.246 383.12 326.625 383.171 324.476 383.188H323.435V373.192H329.201ZM345.54 372.492C346.938 372.492 348.09 373.269 348.781 374.625H352.38V371.367H354.256V386.804H352.38V380.97H348.917C348.252 382.506 347.032 383.393 345.54 383.393C343.22 383.393 341.582 381.295 341.582 377.934C341.582 374.608 343.22 372.492 345.54 372.492ZM345.54 374.198C344.26 374.198 343.39 375.58 343.407 377.934C343.39 380.305 344.26 381.687 345.54 381.687C346.819 381.687 347.672 380.305 347.689 377.934C347.672 375.58 346.819 374.198 345.54 374.198ZM349.309 376.177C349.42 376.714 349.48 377.303 349.48 377.934C349.48 378.471 349.437 378.966 349.361 379.435H352.38V376.177H349.309ZM361.632 373.584C361.615 375.682 362.844 377.593 365.266 378.36L364.242 379.845C362.562 379.256 361.385 378.139 360.728 376.672C360.046 378.352 358.758 379.674 356.89 380.322L355.884 378.787C358.442 377.951 359.722 375.887 359.722 373.669V372.202H361.632V373.584ZM368.899 371.367V380.442H367.006V375.904H363.935V374.352H367.006V371.367H368.899ZM363.679 380.851C366.955 380.851 368.95 381.943 368.95 383.819C368.95 385.696 366.955 386.77 363.679 386.77C360.421 386.77 358.425 385.696 358.442 383.819C358.425 381.943 360.421 380.851 363.679 380.851ZM363.679 382.318C361.53 382.318 360.319 382.847 360.319 383.819C360.319 384.757 361.53 385.286 363.679 385.286C365.829 385.286 367.057 384.757 367.057 383.819C367.057 382.847 365.829 382.318 363.679 382.318ZM379.881 372.919V385.269H377.647V375.085H377.579L374.696 376.928V374.898L377.749 372.919H379.881ZM387.002 385.44C384.033 385.44 382.259 383.137 382.259 379.094C382.259 375.068 384.033 372.748 387.002 372.748C389.953 372.748 391.744 375.068 391.744 379.094C391.744 383.137 389.97 385.44 387.002 385.44ZM387.002 383.58C388.554 383.58 389.509 382.062 389.509 379.094C389.509 376.143 388.537 374.591 387.002 374.591C385.466 374.591 384.494 376.143 384.494 379.094C384.494 382.062 385.449 383.58 387.002 383.58ZM397.721 385.44C394.753 385.44 392.979 383.137 392.979 379.094C392.979 375.068 394.753 372.748 397.721 372.748C400.672 372.748 402.463 375.068 402.463 379.094C402.463 383.137 400.689 385.44 397.721 385.44ZM397.721 383.58C399.273 383.58 400.229 382.062 400.229 379.094C400.229 376.143 399.256 374.591 397.721 374.591C396.186 374.591 395.214 376.143 395.214 379.094C395.214 382.062 396.169 383.58 397.721 383.58ZM408.441 385.44C405.472 385.44 403.698 383.137 403.698 379.094C403.698 375.068 405.472 372.748 408.441 372.748C411.392 372.748 413.183 375.068 413.183 379.094C413.183 383.137 411.409 385.44 408.441 385.44ZM408.441 383.58C409.993 383.58 410.948 382.062 410.948 379.094C410.948 376.143 409.976 374.591 408.441 374.591C406.905 374.591 405.933 376.143 405.933 379.094C405.933 382.062 406.888 383.58 408.441 383.58ZM427.007 371.367V380.442H425.113V378.309H422.009V379.503H414.759V372.527H422.009V373.721H425.113V371.367H427.007ZM416.652 374.028V377.985H420.132V374.028H416.652ZM421.787 380.851C425.062 380.851 427.058 381.943 427.058 383.819C427.058 385.696 425.062 386.77 421.787 386.77C418.529 386.77 416.533 385.696 416.55 383.819C416.533 381.943 418.529 380.851 421.787 380.851ZM421.787 382.301C419.638 382.301 418.427 382.83 418.427 383.819C418.427 384.774 419.638 385.303 421.787 385.303C423.936 385.303 425.165 384.774 425.165 383.819C425.165 382.83 423.936 382.301 421.787 382.301ZM422.009 376.774H425.113V375.222H422.009V376.774Z" fill="black"/>
<g filter="url(#filter10_i_45_8262)">
<rect x="720.114" y="358.912" width="39.9264" height="39.9264" rx="19.9632" fill="url(#paint21_linear_45_8262)"/>
<path d="M749.313 386.603L745.708 383.008C746.871 381.525 747.502 379.695 747.5 377.811C747.5 376.133 747.002 374.493 746.07 373.098C745.138 371.702 743.813 370.615 742.262 369.973C740.712 369.331 739.006 369.163 737.361 369.49C735.715 369.817 734.203 370.625 733.017 371.812C731.83 372.999 731.022 374.51 730.695 376.156C730.367 377.802 730.535 379.508 731.178 381.058C731.82 382.608 732.907 383.933 734.302 384.865C735.697 385.798 737.338 386.295 739.016 386.295C740.9 386.297 742.73 385.666 744.212 384.503L747.807 388.109C747.906 388.208 748.023 388.287 748.152 388.341C748.282 388.395 748.42 388.422 748.56 388.422C748.7 388.422 748.839 388.395 748.968 388.341C749.097 388.287 749.215 388.208 749.313 388.109C749.413 388.01 749.492 387.893 749.545 387.763C749.599 387.634 749.627 387.496 749.627 387.356C749.627 387.216 749.599 387.077 749.545 386.948C749.492 386.819 749.413 386.701 749.313 386.603ZM732.653 377.811C732.653 376.553 733.026 375.322 733.725 374.276C734.424 373.23 735.418 372.414 736.581 371.932C737.743 371.451 739.023 371.325 740.257 371.57C741.491 371.816 742.625 372.422 743.515 373.312C744.405 374.202 745.011 375.335 745.257 376.57C745.502 377.804 745.376 379.083 744.894 380.246C744.413 381.409 743.597 382.403 742.551 383.102C741.504 383.801 740.274 384.174 739.016 384.174C737.328 384.174 735.71 383.504 734.516 382.31C733.323 381.117 732.653 379.499 732.653 377.811Z" fill="#FDFDFD"/>
</g>
</g>
</g>
<g filter="url(#filter11_d_45_8262)">
<g filter="url(#filter12_i_45_8262)">
<rect x="141.182" y="414.85" width="623.849" height="48.6603" rx="24.3301" fill="#FDFDFD"/>
<path d="M162.793 445.575V443.972L167.16 439.758C168.405 438.513 169.053 437.779 169.053 436.739C169.053 435.596 168.149 434.862 166.938 434.862C165.659 434.862 164.84 435.664 164.857 436.91H162.742C162.725 434.573 164.482 433.054 166.955 433.054C169.48 433.054 171.186 434.555 171.186 436.637C171.186 438.035 170.503 439.161 168.081 441.447L165.881 443.631V443.716H171.373V445.575H162.793ZM177.436 445.746C174.468 445.746 172.694 443.443 172.694 439.4C172.694 435.374 174.468 433.054 177.436 433.054C180.387 433.054 182.178 435.374 182.178 439.4C182.178 443.443 180.404 445.746 177.436 445.746ZM177.436 443.886C178.988 443.886 179.944 442.368 179.944 439.4C179.944 436.449 178.971 434.897 177.436 434.897C175.901 434.897 174.928 436.449 174.928 439.4C174.928 442.368 175.884 443.886 177.436 443.886ZM196.361 431.673V447.093H194.552V439.229H192.812V446.309H191.072V431.963H192.812V437.711H194.552V431.673H196.361ZM189.332 433.498V435.033H185.477V441.891C187.158 441.873 188.539 441.788 190.1 441.498L190.237 443.051C188.377 443.426 186.757 443.477 184.607 443.494H183.567V433.498H189.332ZM198.875 438.939C199.438 438.325 200.154 438.001 200.939 438.001C202.304 438.001 203.481 438.957 204.845 438.957C205.63 438.957 206.312 438.632 206.858 437.984V439.844C206.295 440.475 205.579 440.782 204.794 440.782C203.43 440.782 202.235 439.826 200.888 439.826C200.103 439.826 199.421 440.151 198.875 440.799V438.939ZM213.45 445.746C210.806 445.746 208.929 444.313 208.878 442.232H211.113C211.181 443.221 212.17 443.869 213.45 443.869C214.814 443.869 215.787 443.119 215.787 442.027C215.787 440.918 214.831 440.116 213.228 440.116H212.119V438.411H213.228C214.541 438.411 215.462 437.677 215.445 436.602C215.462 435.562 214.678 434.862 213.467 434.862C212.307 434.862 211.3 435.511 211.266 436.551H209.134C209.185 434.47 211.061 433.054 213.484 433.054C215.991 433.054 217.612 434.59 217.595 436.483C217.612 437.865 216.691 438.871 215.343 439.144V439.247C217.083 439.485 218.072 440.594 218.055 442.146C218.072 444.228 216.128 445.746 213.45 445.746ZM224.118 445.746C221.15 445.746 219.376 443.443 219.376 439.4C219.376 435.374 221.15 433.054 224.118 433.054C227.069 433.054 228.86 435.374 228.86 439.4C228.86 443.443 227.086 445.746 224.118 445.746ZM224.118 443.886C225.67 443.886 226.626 442.368 226.626 439.4C226.626 436.449 225.653 434.897 224.118 434.897C222.583 434.897 221.61 436.449 221.61 439.4C221.61 442.368 222.566 443.886 224.118 443.886ZM243.042 431.673V447.093H241.234V439.229H239.494V446.309H237.754V431.963H239.494V437.711H241.234V431.673H243.042ZM236.014 433.498V435.033H232.159V441.891C233.839 441.873 235.221 441.788 236.782 441.498L236.919 443.051C235.059 443.426 233.439 443.477 231.289 443.494H230.249V433.498H236.014ZM260.302 431.69V435.033H262.469V436.602H260.302V440.372H258.409V431.69H260.302ZM260.302 441.123V446.889H250.323V441.123H260.302ZM252.182 442.607V445.388H258.443V442.607H252.182ZM250.715 432.44V437.865C252.694 437.848 254.775 437.669 257.027 437.234L257.249 438.786C254.69 439.298 252.319 439.434 250.084 439.434H248.805V432.44H250.715ZM268.446 433.89C268.429 435.988 269.657 437.899 272.079 438.667L271.056 440.151C269.376 439.562 268.198 438.445 267.542 436.978C266.859 438.658 265.572 439.98 263.704 440.628L262.697 439.093C265.256 438.257 266.535 436.193 266.535 433.975V432.508H268.446V433.89ZM275.713 431.673V440.748H273.819V436.21H270.749V434.658H273.819V431.673H275.713ZM270.493 441.157C273.768 441.157 275.764 442.249 275.764 444.125C275.764 446.002 273.768 447.076 270.493 447.076C267.235 447.076 265.239 446.002 265.256 444.125C265.239 442.249 267.235 441.157 270.493 441.157ZM270.493 442.624C268.343 442.624 267.132 443.153 267.132 444.125C267.132 445.063 268.343 445.592 270.493 445.592C272.642 445.592 273.87 445.063 273.87 444.125C273.87 443.153 272.642 442.624 270.493 442.624ZM295.224 438.752V440.287H289.117V441.566C291.881 441.754 293.501 442.709 293.518 444.313C293.501 446.087 291.505 447.076 288.179 447.076C284.818 447.076 282.806 446.087 282.806 444.313C282.806 442.709 284.443 441.746 287.241 441.566V440.287H281.168V438.752H295.224ZM288.179 442.999C285.927 443.016 284.716 443.46 284.733 444.313C284.716 445.166 285.927 445.626 288.179 445.626C290.38 445.626 291.608 445.166 291.625 444.313C291.608 443.46 290.38 443.016 288.179 442.999ZM293.962 432.355V433.873H289.527C289.825 435.144 291.667 436.287 294.559 436.551L293.894 438.052C291.096 437.771 289.015 436.654 288.179 435.084C287.343 436.645 285.296 437.771 282.499 438.052L281.85 436.551C284.682 436.287 286.524 435.127 286.848 433.873H282.447V432.355H293.962ZM309.133 431.673V447.093H307.308V431.673H309.133ZM305.961 431.946V446.343H304.152V439.008H302.685C302.506 442.01 301.218 443.869 299.308 443.852C297.295 443.869 295.981 441.737 295.981 438.342C295.981 434.948 297.295 432.85 299.308 432.85C301.176 432.85 302.447 434.59 302.668 437.472H304.152V431.946H305.961ZM299.308 434.641C298.336 434.624 297.721 435.937 297.738 438.342C297.721 440.748 298.336 442.061 299.308 442.044C300.331 442.061 300.945 440.748 300.945 438.342C300.945 435.937 300.331 434.624 299.308 434.641ZM316.185 435.374C316.185 438.24 317.55 441.055 320.007 442.129L318.864 443.648C317.115 442.795 315.887 441.157 315.23 439.144C314.556 441.268 313.303 443.033 311.528 443.938L310.334 442.402C312.842 441.225 314.241 438.257 314.258 435.374V432.918H316.185V435.374ZM323.418 431.673V447.11H321.542V438.189H318.301V436.654H321.542V431.673H323.418ZM341.053 431.673V438.035H343.22V439.622H341.053V447.093H339.143V431.673H341.053ZM328.669 442.812C329.837 442.812 331.193 442.812 332.609 442.778V441.328C330.929 441.046 329.829 439.989 329.846 438.547C329.829 436.807 331.364 435.647 333.582 435.647C335.765 435.647 337.317 436.807 337.334 438.547C337.317 439.997 336.2 441.055 334.52 441.328V442.709C335.816 442.641 337.113 442.539 338.324 442.368L338.443 443.75C335.134 444.347 331.569 444.381 328.942 444.381L328.669 442.812ZM338.153 433.447V434.948H328.959V433.447H332.609V431.741H334.52V433.447H338.153ZM333.582 437.097C332.405 437.114 331.637 437.643 331.637 438.547C331.637 439.434 332.405 439.963 333.582 439.946C334.742 439.963 335.509 439.434 335.509 438.547C335.509 437.643 334.742 437.114 333.582 437.097ZM349.043 434.453C349.043 436.347 350.271 438.121 352.677 438.854L351.773 440.338C350.041 439.801 348.813 438.701 348.139 437.302C347.457 438.922 346.152 440.21 344.301 440.833L343.346 439.332C345.836 438.513 347.133 436.517 347.133 434.47V434.283H343.875V432.747H352.25V434.283H349.043V434.453ZM355.679 431.673V435.374H357.828V436.927H355.679V440.867H353.786V431.673H355.679ZM350.664 441.208C353.854 441.208 355.815 442.283 355.833 444.125C355.815 445.985 353.854 447.076 350.664 447.076C347.44 447.076 345.444 445.985 345.444 444.125C345.444 442.283 347.44 441.208 350.664 441.208ZM350.664 442.692C348.549 442.692 347.337 443.187 347.337 444.125C347.337 445.08 348.549 445.592 350.664 445.592C352.779 445.592 353.956 445.08 353.956 444.125C353.956 443.187 352.779 442.692 350.664 442.692ZM371.482 431.673V447.093H369.657V431.673H371.482ZM368.309 431.946V446.343H366.501V439.008H365.034C364.855 442.01 363.567 443.869 361.656 443.852C359.643 443.869 358.33 441.737 358.33 438.342C358.33 434.948 359.643 432.85 361.656 432.85C363.524 432.85 364.795 434.59 365.017 437.472H366.501V431.946H368.309ZM361.656 434.641C360.684 434.624 360.07 435.937 360.087 438.342C360.07 440.748 360.684 442.061 361.656 442.044C362.68 442.061 363.294 440.748 363.294 438.342C363.294 435.937 362.68 434.624 361.656 434.641ZM385.159 432.815V433.737C385.142 434.794 385.142 436.312 384.784 438.274L382.908 438.104C383.206 436.509 383.266 435.332 383.3 434.385H377.295V432.815H385.159ZM381.27 436.33V439.4C382.865 439.34 384.503 439.221 385.995 439.008L386.098 440.372C382.891 440.952 379.257 441.004 376.545 441.021L376.374 439.502C377.287 439.494 378.31 439.485 379.394 439.468V436.33H381.27ZM388.844 431.673V436.483H390.84V438.069H388.844V443.221H386.899V431.673H388.844ZM389.339 445.251V446.786H378.677V442.198H380.588V445.251H389.339ZM404.05 431.69V440.406H402.139V431.69H404.05ZM404.05 441.174V446.906H393.815V441.174H404.05ZM395.691 442.675V445.37H402.19V442.675H395.691ZM396.953 433.771C396.953 435.732 398.267 437.575 400.672 438.342L399.751 439.792C397.968 439.238 396.689 438.104 395.998 436.62C395.29 438.214 393.994 439.485 392.143 440.099L391.205 438.598C393.712 437.797 394.992 435.801 394.992 433.771V432.27H396.953V433.771ZM415.049 441.703C415.049 442.982 415.638 444.33 416.96 445.166C418.299 444.27 418.921 442.871 418.938 441.703V441.072H420.798V441.703C420.781 443.323 421.736 444.825 423.766 445.473L422.845 446.855C421.344 446.351 420.346 445.37 419.808 444.142C419.314 445.353 418.401 446.437 417.011 446.991C415.544 446.462 414.623 445.422 414.145 444.193C413.591 445.379 412.61 446.343 411.177 446.855L410.239 445.473C412.234 444.773 413.19 443.204 413.207 441.703V441.072H415.049V441.703ZM422.418 431.69V440.424H420.508V431.69H422.418ZM414.008 432.508C416.38 432.508 418.154 434.01 418.154 436.176C418.154 438.325 416.38 439.826 414.008 439.826C411.62 439.826 409.846 438.325 409.846 436.176C409.846 434.01 411.62 432.508 414.008 432.508ZM414.008 434.112C412.661 434.112 411.688 434.914 411.706 436.176C411.688 437.438 412.661 438.257 414.008 438.257C415.339 438.257 416.294 437.438 416.294 436.176C416.294 434.914 415.339 434.112 414.008 434.112ZM436.72 436.04V437.541H426.041V432.236H427.918V436.04H436.72ZM438.306 439.332V440.833H424.216V439.332H438.306ZM436.822 445.2V446.735H425.905V442.198H427.798V445.2H436.822ZM448.112 435.374C448.094 438.121 449.476 440.918 451.864 442.061L450.704 443.579C449.033 442.735 447.83 441.106 447.173 439.144C446.5 441.242 445.237 442.982 443.472 443.869L442.312 442.351C444.785 441.174 446.201 438.223 446.218 435.374V432.918H448.112V435.374ZM454.679 431.673V437.711H457.05V439.332H454.679V447.093H452.786V431.673H454.679ZM469.424 431.69V435.442H471.591V437.029H469.424V440.85H467.531V431.69H469.424ZM469.424 441.532V446.906H459.445V441.532H469.424ZM461.304 443.016V445.37H467.565V443.016H461.304ZM464.887 432.474V436.995H459.752V438.649C462.371 438.641 464.162 438.556 466.268 438.206L466.473 439.707C464.17 440.134 462.174 440.202 459.121 440.202H457.859V435.562H463.027V433.993H457.842V432.474H464.887ZM481.157 433.225V445.575H478.922V435.391H478.854L475.971 437.234V435.204L479.025 433.225H481.157ZM488.277 445.746C485.309 445.746 483.535 443.443 483.535 439.4C483.535 435.374 485.309 433.054 488.277 433.054C491.228 433.054 493.019 435.374 493.019 439.4C493.019 443.443 491.245 445.746 488.277 445.746ZM488.277 443.886C489.83 443.886 490.785 442.368 490.785 439.4C490.785 436.449 489.812 434.897 488.277 434.897C486.742 434.897 485.77 436.449 485.77 439.4C485.77 442.368 486.725 443.886 488.277 443.886ZM498.997 445.746C496.029 445.746 494.254 443.443 494.254 439.4C494.254 435.374 496.029 433.054 498.997 433.054C501.948 433.054 503.739 435.374 503.739 439.4C503.739 443.443 501.965 445.746 498.997 445.746ZM498.997 443.886C500.549 443.886 501.504 442.368 501.504 439.4C501.504 436.449 500.532 434.897 498.997 434.897C497.461 434.897 496.489 436.449 496.489 439.4C496.489 442.368 497.444 443.886 498.997 443.886ZM517.563 431.673V440.748H515.67V438.615H512.565V439.809H505.315V432.833H512.565V434.027H515.67V431.673H517.563ZM507.209 434.334V438.291H510.689V434.334H507.209ZM512.343 441.157C515.618 441.157 517.614 442.249 517.614 444.125C517.614 446.002 515.618 447.076 512.343 447.076C509.085 447.076 507.089 446.002 507.106 444.125C507.089 442.249 509.085 441.157 512.343 441.157ZM512.343 442.607C510.194 442.607 508.983 443.136 508.983 444.125C508.983 445.08 510.194 445.609 512.343 445.609C514.493 445.609 515.721 445.08 515.721 444.125C515.721 443.136 514.493 442.607 512.343 442.607ZM512.565 437.08H515.67V435.528H512.565V437.08Z" fill="black"/>
<g filter="url(#filter13_i_45_8262)">
<rect x="720.114" y="419.218" width="39.9264" height="39.9264" rx="19.9632" fill="url(#paint22_linear_45_8262)"/>
<path d="M749.313 446.908L745.708 443.313C746.871 441.831 747.502 440.001 747.5 438.116C747.5 436.438 747.002 434.798 746.07 433.403C745.138 432.008 743.813 430.92 742.262 430.278C740.712 429.636 739.006 429.468 737.361 429.795C735.715 430.123 734.203 430.931 733.017 432.117C731.83 433.304 731.022 434.816 730.695 436.461C730.367 438.107 730.535 439.813 731.178 441.363C731.82 442.913 732.907 444.238 734.302 445.171C735.697 446.103 737.338 446.601 739.016 446.601C740.9 446.603 742.73 445.972 744.212 444.808L747.807 448.414C747.906 448.513 748.023 448.592 748.152 448.646C748.282 448.7 748.42 448.728 748.56 448.728C748.7 448.728 748.839 448.7 748.968 448.646C749.097 448.592 749.215 448.513 749.313 448.414C749.413 448.315 749.492 448.198 749.545 448.069C749.599 447.94 749.627 447.801 749.627 447.661C749.627 447.521 749.599 447.382 749.545 447.253C749.492 447.124 749.413 447.007 749.313 446.908ZM732.653 438.116C732.653 436.858 733.026 435.628 733.725 434.581C734.424 433.535 735.418 432.719 736.581 432.238C737.743 431.756 739.023 431.63 740.257 431.876C741.491 432.121 742.625 432.727 743.515 433.617C744.405 434.507 745.011 435.641 745.257 436.875C745.502 438.109 745.376 439.389 744.894 440.552C744.413 441.714 743.597 442.708 742.551 443.407C741.504 444.106 740.274 444.48 739.016 444.48C737.328 444.48 735.71 443.809 734.516 442.616C733.323 441.423 732.653 439.804 732.653 438.116Z" fill="#FDFDFD"/>
</g>
</g>
</g>
<g filter="url(#filter14_d_45_8262)">
<path d="M116.519 309.231C116.519 308.43 115.87 307.78 115.068 307.78C114.267 307.78 113.618 308.43 113.618 309.231L115.068 309.231L116.519 309.231ZM114.042 465.494C114.609 466.061 115.528 466.061 116.094 465.494L125.327 456.261C125.894 455.695 125.894 454.776 125.327 454.209C124.761 453.643 123.842 453.643 123.275 454.209L115.068 462.416L106.861 454.209C106.295 453.643 105.376 453.643 104.81 454.209C104.243 454.776 104.243 455.695 104.81 456.261L114.042 465.494ZM115.068 309.231L113.618 309.231L113.618 464.468L115.068 464.468L116.519 464.468L116.519 309.231L115.068 309.231Z" fill="url(#paint23_linear_45_8262)"/>
</g>
</g>
<path d="M919.269 0.5C941.084 0.500121 958.769 18.1848 958.769 40V541.094C958.769 562.909 941.084 580.594 919.269 580.594H-73.2871V0.5H919.269Z" stroke="#F19D52"/>
</g>
</g>
<defs>
<filter id="filter1_d_45_8262" x="-103.787" y="-30" width="1093.06" height="641.094" filterUnits="userSpaceOnUse" color-interpolation-filters="sRGB">
<feFlood flood-opacity="0" result="BackgroundImageFix"/>
<feColorMatrix in="SourceAlpha" type="matrix" values="0 0 0 0 0 0 0 0 0 0 0 0 0 0 0 0 0 0 127 0" result="hardAlpha"/>
<feOffset/>
<feGaussianBlur stdDeviation="15"/>
<feComposite in2="hardAlpha" operator="out"/>
<feColorMatrix type="matrix" values="0 0 0 0 0.945098 0 0 0 0 0.615686 0 0 0 0 0.321569 0 0 0 0.3 0"/>
<feBlend mode="normal" in2="BackgroundImageFix" result="effect1_dropShadow_45_8262"/>
<feBlend mode="normal" in="SourceGraphic" in2="effect1_dropShadow_45_8262" result="shape"/>
</filter>
<filter id="filter2_d_45_8262" x="207.438" y="210.604" width="497.145" height="51.262" filterUnits="userSpaceOnUse" color-interpolation-filters="sRGB">
<feFlood flood-opacity="0" result="BackgroundImageFix"/>
<feColorMatrix in="SourceAlpha" type="matrix" values="0 0 0 0 0 0 0 0 0 0 0 0 0 0 0 0 0 0 127 0" result="hardAlpha"/>
<feOffset dx="2.90163" dy="2.90163"/>
<feGaussianBlur stdDeviation="3.38523"/>
<feComposite in2="hardAlpha" operator="out"/>
<feColorMatrix type="matrix" values="0 0 0 0 0.945098 0 0 0 0 0.615686 0 0 0 0 0.321569 0 0 0 0.2 0"/>
<feBlend mode="normal" in2="BackgroundImageFix" result="effect1_dropShadow_45_8262"/>
<feBlend mode="normal" in="SourceGraphic" in2="effect1_dropShadow_45_8262" result="shape"/>
</filter>
<filter id="filter3_i_45_8262" x="211.307" y="214.473" width="485.538" height="39.6555" filterUnits="userSpaceOnUse" color-interpolation-filters="sRGB">
<feFlood flood-opacity="0" result="BackgroundImageFix"/>
<feBlend mode="normal" in="SourceGraphic" in2="BackgroundImageFix" result="shape"/>
<feColorMatrix in="SourceAlpha" type="matrix" values="0 0 0 0 0 0 0 0 0 0 0 0 0 0 0 0 0 0 127 0" result="hardAlpha"/>
<feOffset dx="1.93442" dy="1.93442"/>
<feGaussianBlur stdDeviation="1.93442"/>
<feComposite in2="hardAlpha" operator="arithmetic" k2="-1" k3="1"/>
<feColorMatrix type="matrix" values="0 0 0 0 0.945098 0 0 0 0 0.615686 0 0 0 0 0.321569 0 0 0 0.2 0"/>
<feBlend mode="normal" in2="shape" result="effect1_innerShadow_45_8262"/>
</filter>
<filter id="filter4_i_45_8262" x="660.092" y="217.858" width="30.9507" height="32.2964" filterUnits="userSpaceOnUse" color-interpolation-filters="sRGB">
<feFlood flood-opacity="0" result="BackgroundImageFix"/>
<feBlend mode="normal" in="SourceGraphic" in2="BackgroundImageFix" result="shape"/>
<feColorMatrix in="SourceAlpha" type="matrix" values="0 0 0 0 0 0 0 0 0 0 0 0 0 0 0 0 0 0 127 0" result="hardAlpha"/>
<feOffset dy="1.34568"/>
<feGaussianBlur stdDeviation="0.672841"/>
<feComposite in2="hardAlpha" operator="arithmetic" k2="-1" k3="1"/>
<feColorMatrix type="matrix" values="0 0 0 0 0.945098 0 0 0 0 0.615686 0 0 0 0 0.321569 0 0 0 0.6 0"/>
<feBlend mode="normal" in2="shape" result="effect1_innerShadow_45_8262"/>
</filter>
<filter id="filter5_d_45_8262" x="136.191" y="289.249" width="641.317" height="66.128" filterUnits="userSpaceOnUse" color-interpolation-filters="sRGB">
<feFlood flood-opacity="0" result="BackgroundImageFix"/>
<feColorMatrix in="SourceAlpha" type="matrix" values="0 0 0 0 0 0 0 0 0 0 0 0 0 0 0 0 0 0 127 0" result="hardAlpha"/>
<feOffset dx="3.7431" dy="3.7431"/>
<feGaussianBlur stdDeviation="4.36695"/>
<feComposite in2="hardAlpha" operator="out"/>
<feColorMatrix type="matrix" values="0 0 0 0 0.945098 0 0 0 0 0.615686 0 0 0 0 0.321569 0 0 0 0.1 0"/>
<feBlend mode="normal" in2="BackgroundImageFix" result="effect1_dropShadow_45_8262"/>
<feBlend mode="normal" in="SourceGraphic" in2="effect1_dropShadow_45_8262" result="shape"/>
</filter>
<filter id="filter6_i_45_8262" x="141.182" y="294.24" width="626.345" height="51.1556" filterUnits="userSpaceOnUse" color-interpolation-filters="sRGB">
<feFlood flood-opacity="0" result="BackgroundImageFix"/>
<feBlend mode="normal" in="SourceGraphic" in2="BackgroundImageFix" result="shape"/>
<feColorMatrix in="SourceAlpha" type="matrix" values="0 0 0 0 0 0 0 0 0 0 0 0 0 0 0 0 0 0 127 0" result="hardAlpha"/>
<feOffset dx="2.4954" dy="2.4954"/>
<feGaussianBlur stdDeviation="2.4954"/>
<feComposite in2="hardAlpha" operator="arithmetic" k2="-1" k3="1"/>
<feColorMatrix type="matrix" values="0 0 0 0 0.945098 0 0 0 0 0.615686 0 0 0 0 0.321569 0 0 0 0.2 0"/>
<feBlend mode="normal" in2="shape" result="effect1_innerShadow_45_8262"/>
</filter>
<filter id="filter7_i_45_8262" x="720.114" y="298.606" width="39.9263" height="41.6623" filterUnits="userSpaceOnUse" color-interpolation-filters="sRGB">
<feFlood flood-opacity="0" result="BackgroundImageFix"/>
<feBlend mode="normal" in="SourceGraphic" in2="BackgroundImageFix" result="shape"/>
<feColorMatrix in="SourceAlpha" type="matrix" values="0 0 0 0 0 0 0 0 0 0 0 0 0 0 0 0 0 0 127 0" result="hardAlpha"/>
<feOffset dy="1.73593"/>
<feGaussianBlur stdDeviation="0.867965"/>
<feComposite in2="hardAlpha" operator="arithmetic" k2="-1" k3="1"/>
<feColorMatrix type="matrix" values="0 0 0 0 0.945098 0 0 0 0 0.615686 0 0 0 0 0.321569 0 0 0 0.6 0"/>
<feBlend mode="normal" in2="shape" result="effect1_innerShadow_45_8262"/>
</filter>
<filter id="filter8_d_45_8262" x="139.726" y="353.09" width="634.247" height="59.0577" filterUnits="userSpaceOnUse" color-interpolation-filters="sRGB">
<feFlood flood-opacity="0" result="BackgroundImageFix"/>
<feColorMatrix in="SourceAlpha" type="matrix" values="0 0 0 0 0 0 0 0 0 0 0 0 0 0 0 0 0 0 127 0" result="hardAlpha"/>
<feOffset dx="3.7431" dy="3.7431"/>
<feGaussianBlur stdDeviation="2.59937"/>
<feComposite in2="hardAlpha" operator="out"/>
<feColorMatrix type="matrix" values="0 0 0 0 0.945098 0 0 0 0 0.615686 0 0 0 0 0.321569 0 0 0 0.05 0"/>
<feBlend mode="normal" in2="BackgroundImageFix" result="effect1_dropShadow_45_8262"/>
<feBlend mode="normal" in="SourceGraphic" in2="effect1_dropShadow_45_8262" result="shape"/>
</filter>
<filter id="filter9_i_45_8262" x="141.182" y="354.545" width="626.345" height="51.1556" filterUnits="userSpaceOnUse" color-interpolation-filters="sRGB">
<feFlood flood-opacity="0" result="BackgroundImageFix"/>
<feBlend mode="normal" in="SourceGraphic" in2="BackgroundImageFix" result="shape"/>
<feColorMatrix in="SourceAlpha" type="matrix" values="0 0 0 0 0 0 0 0 0 0 0 0 0 0 0 0 0 0 127 0" result="hardAlpha"/>
<feOffset dx="2.4954" dy="2.4954"/>
<feGaussianBlur stdDeviation="2.4954"/>
<feComposite in2="hardAlpha" operator="arithmetic" k2="-1" k3="1"/>
<feColorMatrix type="matrix" values="0 0 0 0 0.945098 0 0 0 0 0.615686 0 0 0 0 0.321569 0 0 0 0.2 0"/>
<feBlend mode="normal" in2="shape" result="effect1_innerShadow_45_8262"/>
</filter>
<filter id="filter10_i_45_8262" x="720.114" y="358.912" width="39.9263" height="41.6623" filterUnits="userSpaceOnUse" color-interpolation-filters="sRGB">
<feFlood flood-opacity="0" result="BackgroundImageFix"/>
<feBlend mode="normal" in="SourceGraphic" in2="BackgroundImageFix" result="shape"/>
<feColorMatrix in="SourceAlpha" type="matrix" values="0 0 0 0 0 0 0 0 0 0 0 0 0 0 0 0 0 0 127 0" result="hardAlpha"/>
<feOffset dy="1.73593"/>
<feGaussianBlur stdDeviation="0.867965"/>
<feComposite in2="hardAlpha" operator="arithmetic" k2="-1" k3="1"/>
<feColorMatrix type="matrix" values="0 0 0 0 0.945098 0 0 0 0 0.615686 0 0 0 0 0.321569 0 0 0 0.6 0"/>
<feBlend mode="normal" in2="shape" result="effect1_innerShadow_45_8262"/>
</filter>
<filter id="filter11_d_45_8262" x="136.191" y="409.86" width="641.317" height="66.128" filterUnits="userSpaceOnUse" color-interpolation-filters="sRGB">
<feFlood flood-opacity="0" result="BackgroundImageFix"/>
<feColorMatrix in="SourceAlpha" type="matrix" values="0 0 0 0 0 0 0 0 0 0 0 0 0 0 0 0 0 0 127 0" result="hardAlpha"/>
<feOffset dx="3.7431" dy="3.7431"/>
<feGaussianBlur stdDeviation="4.36695"/>
<feComposite in2="hardAlpha" operator="out"/>
<feColorMatrix type="matrix" values="0 0 0 0 0.945098 0 0 0 0 0.615686 0 0 0 0 0.321569 0 0 0 0.1 0"/>
<feBlend mode="normal" in2="BackgroundImageFix" result="effect1_dropShadow_45_8262"/>
<feBlend mode="normal" in="SourceGraphic" in2="effect1_dropShadow_45_8262" result="shape"/>
</filter>
<filter id="filter12_i_45_8262" x="141.182" y="414.85" width="626.345" height="51.1557" filterUnits="userSpaceOnUse" color-interpolation-filters="sRGB">
<feFlood flood-opacity="0" result="BackgroundImageFix"/>
<feBlend mode="normal" in="SourceGraphic" in2="BackgroundImageFix" result="shape"/>
<feColorMatrix in="SourceAlpha" type="matrix" values="0 0 0 0 0 0 0 0 0 0 0 0 0 0 0 0 0 0 127 0" result="hardAlpha"/>
<feOffset dx="2.4954" dy="2.4954"/>
<feGaussianBlur stdDeviation="2.4954"/>
<feComposite in2="hardAlpha" operator="arithmetic" k2="-1" k3="1"/>
<feColorMatrix type="matrix" values="0 0 0 0 0.945098 0 0 0 0 0.615686 0 0 0 0 0.321569 0 0 0 0.2 0"/>
<feBlend mode="normal" in2="shape" result="effect1_innerShadow_45_8262"/>
</filter>
<filter id="filter13_i_45_8262" x="720.114" y="419.218" width="39.9263" height="41.6623" filterUnits="userSpaceOnUse" color-interpolation-filters="sRGB">
<feFlood flood-opacity="0" result="BackgroundImageFix"/>
<feBlend mode="normal" in="SourceGraphic" in2="BackgroundImageFix" result="shape"/>
<feColorMatrix in="SourceAlpha" type="matrix" values="0 0 0 0 0 0 0 0 0 0 0 0 0 0 0 0 0 0 127 0" result="hardAlpha"/>
<feOffset dy="1.73593"/>
<feGaussianBlur stdDeviation="0.867965"/>
<feComposite in2="hardAlpha" operator="arithmetic" k2="-1" k3="1"/>
<feColorMatrix type="matrix" values="0 0 0 0 0.945098 0 0 0 0 0.615686 0 0 0 0 0.321569 0 0 0 0.6 0"/>
<feBlend mode="normal" in2="shape" result="effect1_innerShadow_45_8262"/>
</filter>
<filter id="filter14_d_45_8262" x="102.45" y="307.78" width="25.236" height="162.007" filterUnits="userSpaceOnUse" color-interpolation-filters="sRGB">
<feFlood flood-opacity="0" result="BackgroundImageFix"/>
<feColorMatrix in="SourceAlpha" type="matrix" values="0 0 0 0 0 0 0 0 0 0 0 0 0 0 0 0 0 0 127 0" result="hardAlpha"/>
<feOffset dy="1.93442"/>
<feGaussianBlur stdDeviation="0.967208"/>
<feComposite in2="hardAlpha" operator="out"/>
<feColorMatrix type="matrix" values="0 0 0 0 0 0 0 0 0 0 0 0 0 0 0 0 0 0 0.25 0"/>
<feBlend mode="normal" in2="BackgroundImageFix" result="effect1_dropShadow_45_8262"/>
<feBlend mode="normal" in="SourceGraphic" in2="effect1_dropShadow_45_8262" result="shape"/>
</filter>
<linearGradient id="paint0_linear_45_8262" x1="828.5" y1="-70.5" x2="1205.5" y2="122.5" gradientUnits="userSpaceOnUse">
<stop stop-color="#F19D52" stop-opacity="0"/>
<stop offset="1" stop-color="#F19D52" stop-opacity="0.6"/>
</linearGradient>
<linearGradient id="paint1_linear_45_8262" x1="0" y1="290.547" x2="1035.75" y2="290.547" gradientUnits="userSpaceOnUse">
<stop stop-color="#0C0F29" stop-opacity="0.7"/>
<stop offset="1" stop-color="#F19D52" stop-opacity="0.8"/>
</linearGradient>
<linearGradient id="paint2_linear_45_8262" x1="453.108" y1="220.461" x2="453.108" y2="311.407" gradientUnits="userSpaceOnUse">
<stop stop-color="#F19D52" stop-opacity="0"/>
<stop offset="1" stop-color="#F19D52"/>
</linearGradient>
<linearGradient id="paint3_linear_45_8262" x1="691.042" y1="233.333" x2="660.092" y2="233.333" gradientUnits="userSpaceOnUse">
<stop stop-color="#FBFBC7"/>
<stop offset="1" stop-color="#F19D52"/>
</linearGradient>
<linearGradient id="paint4_linear_45_8262" x1="558.365" y1="155.506" x2="518.16" y2="155.506" gradientUnits="userSpaceOnUse">
<stop stop-color="#609B9B"/>
<stop offset="1" stop-color="#316C6D"/>
</linearGradient>
<linearGradient id="paint5_linear_45_8262" x1="518.16" y1="155.506" x2="558.365" y2="155.506" gradientUnits="userSpaceOnUse">
<stop stop-color="#8A661F"/>
<stop offset="1" stop-color="#D4A638"/>
</linearGradient>
<linearGradient id="paint6_linear_45_8262" x1="518.16" y1="155.506" x2="567.43" y2="155.506" gradientUnits="userSpaceOnUse">
<stop stop-color="#ED702D"/>
<stop offset="1" stop-color="#F19D52"/>
</linearGradient>
<linearGradient id="paint7_linear_45_8262" x1="576.928" y1="134.725" x2="566.009" y2="142.347" gradientUnits="userSpaceOnUse">
<stop stop-color="#8A661F"/>
<stop offset="1" stop-color="#D4A638"/>
</linearGradient>
<linearGradient id="paint8_linear_45_8262" x1="576.928" y1="134.725" x2="566.009" y2="142.347" gradientUnits="userSpaceOnUse">
<stop stop-color="#ED702D"/>
<stop offset="1" stop-color="#F19D52"/>
</linearGradient>
<linearGradient id="paint9_linear_45_8262" x1="576.975" y1="175.299" x2="566.056" y2="167.677" gradientUnits="userSpaceOnUse">
<stop stop-color="#8A661F"/>
<stop offset="1" stop-color="#D4A638"/>
</linearGradient>
<linearGradient id="paint10_linear_45_8262" x1="576.975" y1="175.299" x2="566.056" y2="167.677" gradientUnits="userSpaceOnUse">
<stop stop-color="#ED702D"/>
<stop offset="1" stop-color="#F19D52"/>
</linearGradient>
<linearGradient id="paint11_linear_45_8262" x1="582.736" y1="154.858" x2="581.537" y2="159.664" gradientUnits="userSpaceOnUse">
<stop stop-color="#8A661F"/>
<stop offset="1" stop-color="#D4A638"/>
</linearGradient>
<linearGradient id="paint12_linear_45_8262" x1="582.732" y1="154.294" x2="582.16" y2="157.734" gradientUnits="userSpaceOnUse">
<stop stop-color="#ED702D"/>
<stop offset="1" stop-color="#F19D52"/>
</linearGradient>
<linearGradient id="paint13_linear_45_8262" x1="481.493" y1="142.099" x2="481.493" y2="147.947" gradientUnits="userSpaceOnUse">
<stop stop-color="#E0E0E0"/>
<stop offset="1" stop-color="#A2A2A2"/>
</linearGradient>
<linearGradient id="paint14_linear_45_8262" x1="475.281" y1="141.368" x2="467.971" y2="141.368" gradientUnits="userSpaceOnUse">
<stop stop-color="#609B9B"/>
<stop offset="1" stop-color="#316C6D"/>
</linearGradient>
<linearGradient id="paint15_linear_45_8262" x1="481.859" y1="169.146" x2="481.859" y2="163.298" gradientUnits="userSpaceOnUse">
<stop stop-color="#E0E0E0"/>
<stop offset="1" stop-color="#A2A2A2"/>
</linearGradient>
<linearGradient id="paint16_linear_45_8262" x1="7.30999" y1="3.655" x2="0" y2="3.655" gradientUnits="userSpaceOnUse">
<stop stop-color="#609B9B"/>
<stop offset="1" stop-color="#316C6D"/>
</linearGradient>
<linearGradient id="paint17_linear_45_8262" x1="507.444" y1="155.257" x2="487.707" y2="155.257" gradientUnits="userSpaceOnUse">
<stop stop-color="#8A661F"/>
<stop offset="1" stop-color="#D4A638"/>
</linearGradient>
<linearGradient id="paint18_linear_45_8262" x1="507.444" y1="155.257" x2="483.257" y2="155.257" gradientUnits="userSpaceOnUse">
<stop stop-color="#ED702D"/>
<stop offset="1" stop-color="#F19D52"/>
</linearGradient>
<linearGradient id="paint19_linear_45_8262" x1="543.674" y1="154.768" x2="505.297" y2="154.768" gradientUnits="userSpaceOnUse">
<stop stop-color="#FBFBC7"/>
<stop offset="1" stop-color="#F19D52"/>
</linearGradient>
<linearGradient id="paint20_linear_45_8262" x1="760.041" y1="318.569" x2="720.114" y2="318.569" gradientUnits="userSpaceOnUse">
<stop stop-color="#FBFBC7"/>
<stop offset="1" stop-color="#F19D52"/>
</linearGradient>
<linearGradient id="paint21_linear_45_8262" x1="760.041" y1="378.875" x2="720.114" y2="378.875" gradientUnits="userSpaceOnUse">
<stop stop-color="#FBFBC7"/>
<stop offset="1" stop-color="#F19D52"/>
</linearGradient>
<linearGradient id="paint22_linear_45_8262" x1="760.041" y1="439.181" x2="720.114" y2="439.181" gradientUnits="userSpaceOnUse">
<stop stop-color="#FBFBC7"/>
<stop offset="1" stop-color="#F19D52"/>
</linearGradient>
<linearGradient id="paint23_linear_45_8262" x1="115.31" y1="321.563" x2="115.31" y2="464.468" gradientUnits="userSpaceOnUse">
<stop stop-color="#0C0F29"/>
<stop offset="1" stop-color="#F19D52"/>
</linearGradient>
<clipPath id="clip0_45_8262">
<rect width="1192" height="686" fill="white"/>
</clipPath>
<clipPath id="clip1_45_8262">
<path d="M-73.7871 0H919.268C941.36 0 959.268 17.9086 959.268 40V541.094C959.268 563.185 941.36 581.094 919.268 581.094H-73.7871V0Z" fill="white"/>
</clipPath>
</defs>
</svg>
