<svg width="45" height="45" viewBox="0 0 45 45" fill="none" xmlns="http://www.w3.org/2000/svg">
<g filter="url(#filter0_ii_596_2067)">
<path d="M44.4453 22.2227C44.4453 9.9498 34.4955 0 22.2227 0C16.0874 0 10.5292 2.49068 6.50977 6.50879C6.16726 6.85129 5.75742 7.27784 5.31625 7.74609C5.00432 8.07717 4.44531 7.8579 4.44531 7.40302V4.44531C4.44531 3.21801 3.44995 2.22266 2.22266 2.22266C0.995358 2.22266 0 3.21801 0 4.44531V14.4453C0.000232697 15.6724 0.995502 16.667 2.22266 16.667H12.2227C13.4498 16.667 14.4451 15.6724 14.4453 14.4453C14.4453 13.218 13.45 12.2227 12.2227 12.2227H8.36169C7.92642 12.2227 7.69946 11.7054 7.9958 11.3866C8.62473 10.7099 9.20835 10.0944 9.65137 9.65137C12.8719 6.43185 17.3136 4.44531 22.2227 4.44531C32.0409 4.44531 40 12.4044 40 22.2227C40 32.0409 32.0409 40 22.2227 40H22.2197C19.8856 40.0033 17.5734 39.5456 15.417 38.6523C13.2607 37.7592 11.3024 36.4485 9.6543 34.7959C8.7878 33.927 7.38078 33.9248 6.51172 34.791C5.64278 35.6576 5.64048 37.0645 6.50684 37.9336C8.56863 40.0011 11.0192 41.6414 13.7168 42.7588C16.4133 43.8756 19.304 44.448 22.2227 44.4443H22.2239C22.2244 44.4443 22.2248 44.4445 22.2251 44.4448C22.2254 44.4451 22.2258 44.4453 22.2263 44.4453C34.4975 44.4434 44.4453 34.4943 44.4453 22.2227ZM24.4453 13.334C24.4453 12.1067 23.45 11.1113 22.2227 11.1113C20.9954 11.1113 20 12.1067 20 13.334V24.1367C20 24.8342 20.3279 25.4912 20.8848 25.9111L28.6631 31.7744C29.6431 32.5132 31.0356 32.3178 31.7744 31.3379C32.5132 30.3579 32.3179 28.9644 31.3379 28.2256L24.6443 23.1793C24.519 23.0849 24.4453 22.937 24.4453 22.7801V13.334Z" fill="#F19D52"/>
</g>
<defs>
<filter id="filter0_ii_596_2067" x="-1" y="-1" width="46.4453" height="46.4453" filterUnits="userSpaceOnUse" color-interpolation-filters="sRGB">
<feFlood flood-opacity="0" result="BackgroundImageFix"/>
<feBlend mode="normal" in="SourceGraphic" in2="BackgroundImageFix" result="shape"/>
<feColorMatrix in="SourceAlpha" type="matrix" values="0 0 0 0 0 0 0 0 0 0 0 0 0 0 0 0 0 0 127 0" result="hardAlpha"/>
<feOffset dx="1" dy="1"/>
<feGaussianBlur stdDeviation="1"/>
<feComposite in2="hardAlpha" operator="arithmetic" k2="-1" k3="1"/>
<feColorMatrix type="matrix" values="0 0 0 0 0.929412 0 0 0 0 0.439216 0 0 0 0 0.176471 0 0 0 1 0"/>
<feBlend mode="normal" in2="shape" result="effect1_innerShadow_596_2067"/>
<feColorMatrix in="SourceAlpha" type="matrix" values="0 0 0 0 0 0 0 0 0 0 0 0 0 0 0 0 0 0 127 0" result="hardAlpha"/>
<feOffset dx="-1" dy="-1"/>
<feGaussianBlur stdDeviation="1"/>
<feComposite in2="hardAlpha" operator="arithmetic" k2="-1" k3="1"/>
<feColorMatrix type="matrix" values="0 0 0 0 1 0 0 0 0 0.591074 0 0 0 0 0.225962 0 0 0 1 0"/>
<feBlend mode="normal" in2="effect1_innerShadow_596_2067" result="effect2_innerShadow_596_2067"/>
</filter>
</defs>
</svg>
