<svg width="47" height="38" viewBox="0 0 47 38" fill="none" xmlns="http://www.w3.org/2000/svg">
<g filter="url(#filter0_ii_555_377)">
<path d="M2.6063 13.7969L0.763356 15.6399C-0.254475 14.622 -0.254475 12.9718 0.763356 11.954L2.6063 13.7969ZM46.9204 34.6506C46.9204 35.342 46.6458 36.005 46.1569 36.4939C45.6681 36.9827 45.005 37.2573 44.3137 37.2573C43.6224 37.2573 42.9593 36.9827 42.4705 36.4939C41.9816 36.005 41.707 35.342 41.707 34.6506H46.9204ZM15.6399 26.8305C14.622 27.8483 12.9718 27.8483 11.954 26.8305L0.763356 15.6399L4.44925 11.954L15.6399 23.1446C16.6577 24.1624 16.6577 25.8127 15.6399 26.8305ZM0.763356 11.954L11.954 0.763369C12.9718 -0.254461 14.622 -0.25446 15.6399 0.763371C16.6577 1.7812 16.6577 3.43143 15.6399 4.44926L4.44925 15.6399L0.763356 11.954ZM2.6063 11.1902H28.6734V16.4036H2.6063V11.1902ZM46.9204 29.4372V34.6506H41.707V29.4372H46.9204ZM28.6734 11.1902C33.5128 11.1902 38.154 13.1127 41.576 16.5346C44.998 19.9566 46.9204 24.5978 46.9204 29.4372H41.707C41.707 25.9805 40.3338 22.6654 37.8895 20.2211C35.4453 17.7768 32.1301 16.4036 28.6734 16.4036V11.1902Z" fill="black"/>
<path d="M2.6063 13.7969L0.763356 15.6399C-0.254475 14.622 -0.254475 12.9718 0.763356 11.954L2.6063 13.7969ZM46.9204 34.6506C46.9204 35.342 46.6458 36.005 46.1569 36.4939C45.6681 36.9827 45.005 37.2573 44.3137 37.2573C43.6224 37.2573 42.9593 36.9827 42.4705 36.4939C41.9816 36.005 41.707 35.342 41.707 34.6506H46.9204ZM15.6399 26.8305C14.622 27.8483 12.9718 27.8483 11.954 26.8305L0.763356 15.6399L4.44925 11.954L15.6399 23.1446C16.6577 24.1624 16.6577 25.8127 15.6399 26.8305ZM0.763356 11.954L11.954 0.763369C12.9718 -0.254461 14.622 -0.25446 15.6399 0.763371C16.6577 1.7812 16.6577 3.43143 15.6399 4.44926L4.44925 15.6399L0.763356 11.954ZM2.6063 11.1902H28.6734V16.4036H2.6063V11.1902ZM46.9204 29.4372V34.6506H41.707V29.4372H46.9204ZM28.6734 11.1902C33.5128 11.1902 38.154 13.1127 41.576 16.5346C44.998 19.9566 46.9204 24.5978 46.9204 29.4372H41.707C41.707 25.9805 40.3338 22.6654 37.8895 20.2211C35.4453 17.7768 32.1301 16.4036 28.6734 16.4036V11.1902Z" fill="#F19D52"/>
</g>
<defs>
<filter id="filter0_ii_555_377" x="-2.60671" y="-2.60671" width="52.1338" height="42.4708" filterUnits="userSpaceOnUse" color-interpolation-filters="sRGB">
<feFlood flood-opacity="0" result="BackgroundImageFix"/>
<feBlend mode="normal" in="SourceGraphic" in2="BackgroundImageFix" result="shape"/>
<feColorMatrix in="SourceAlpha" type="matrix" values="0 0 0 0 0 0 0 0 0 0 0 0 0 0 0 0 0 0 127 0" result="hardAlpha"/>
<feOffset dx="2.60671" dy="2.60671"/>
<feGaussianBlur stdDeviation="2.60671"/>
<feComposite in2="hardAlpha" operator="arithmetic" k2="-1" k3="1"/>
<feColorMatrix type="matrix" values="0 0 0 0 0.929412 0 0 0 0 0.439216 0 0 0 0 0.176471 0 0 0 1 0"/>
<feBlend mode="normal" in2="shape" result="effect1_innerShadow_555_377"/>
<feColorMatrix in="SourceAlpha" type="matrix" values="0 0 0 0 0 0 0 0 0 0 0 0 0 0 0 0 0 0 127 0" result="hardAlpha"/>
<feOffset dx="-2.60671" dy="-2.60671"/>
<feGaussianBlur stdDeviation="2.60671"/>
<feComposite in2="hardAlpha" operator="arithmetic" k2="-1" k3="1"/>
<feColorMatrix type="matrix" values="0 0 0 0 1 0 0 0 0 0.591074 0 0 0 0 0.225962 0 0 0 1 0"/>
<feBlend mode="normal" in2="effect1_innerShadow_555_377" result="effect2_innerShadow_555_377"/>
</filter>
</defs>
</svg>
