<svg width="27" height="27" viewBox="0 0 27 27" fill="none" xmlns="http://www.w3.org/2000/svg">
<path d="M0 13.524C0 11.0782 0.611457 8.81217 1.82238 6.73801C3.0333 4.66385 4.67584 3.02131 6.75 1.81039C8.82416 0.599467 11.0782 0 13.512 0C15.3344 0 17.0848 0.35968 18.7513 1.06705C20.4178 1.77442 21.8446 2.74556 23.0555 3.94449C24.2664 5.14343 25.2256 6.58215 25.9329 8.26066C26.6403 9.93917 27 11.6776 27 13.524C27 15.3464 26.6403 17.0968 25.9329 18.7633C25.2256 20.4298 24.2544 21.8686 23.0555 23.0675C21.8566 24.2664 20.4178 25.2256 18.7513 25.9329C17.0848 26.6403 15.3464 27 13.512 27C11.6776 27 9.91519 26.6403 8.24867 25.9329C6.58215 25.2256 5.14343 24.2544 3.9325 23.0555C2.72158 21.8566 1.77442 20.4179 1.05506 18.7633C0.335701 17.1088 0 15.3583 0 13.524ZM2.97336 13.524C2.97336 16.3655 4.00444 18.8353 6.0786 20.9334C8.15275 23.0075 10.6226 24.0386 13.512 24.0386C15.4063 24.0386 17.1687 23.571 18.7753 22.6239C20.3819 21.6767 21.6767 20.4059 22.6239 18.7873C23.571 17.1687 24.0506 15.4183 24.0506 13.524C24.0506 11.6297 23.571 9.86723 22.6239 8.24867C21.6767 6.63011 20.3939 5.34725 18.7753 4.40009C17.1567 3.45293 15.4063 2.98535 13.512 2.98535C11.6177 2.98535 9.85524 3.45293 8.24867 4.40009C6.6421 5.34725 5.34725 6.63011 4.3881 8.24867C3.42895 9.86723 2.97336 11.6297 2.97336 13.524ZM12.4689 13.524V5.53908C12.4689 5.26332 12.5648 5.02353 12.7567 4.8317C12.9485 4.63988 13.1883 4.54396 13.464 4.54396C13.7398 4.54396 13.9796 4.63988 14.1714 4.8317C14.3632 5.02353 14.4591 5.26332 14.4591 5.53908V13.2362L17.0369 17.8401C17.1807 18.0919 17.2047 18.3557 17.1328 18.6194C17.0608 18.8832 16.905 19.087 16.6652 19.2309C16.5133 19.3084 16.344 19.3456 16.1736 19.3388C15.778 19.3388 15.4782 19.171 15.2984 18.8472L12.6607 14.1714C12.5361 13.9784 12.4695 13.7537 12.4689 13.524Z" fill="#D9D9D9"/>
</svg>
