<svg width="532" height="158" viewBox="0 0 532 158" fill="none" xmlns="http://www.w3.org/2000/svg">
<path d="M239.536 70.3303C234.037 70.3303 229.892 71.8076 227.102 74.7621C224.312 77.6346 222.916 81.4508 222.916 86.2109V134.345H199.526V84.9799C199.526 79.9736 200.388 75.4597 202.112 71.4382C203.917 67.3347 206.502 63.8467 209.867 60.9742C213.314 58.1018 217.5 55.8859 222.424 54.3265C227.43 52.6851 233.134 51.8644 239.536 51.8644C245.937 51.8644 251.6 52.6851 256.524 54.3265C261.531 55.8859 265.716 58.1018 269.081 60.9742C272.528 63.8467 275.113 67.3347 276.837 71.4382C278.642 75.4597 279.545 79.9736 279.545 84.9799V134.345H256.155V86.2109C256.155 81.4508 254.76 77.6346 251.969 74.7621C249.179 71.8076 245.034 70.3303 239.536 70.3303Z" fill="#FFF7DE"/>
<path d="M189.611 53.8863V133.905H167.452V125.288C164.416 128.735 160.681 131.443 156.249 133.413C151.9 135.382 146.811 136.367 140.984 136.367C135.814 136.367 130.972 135.259 126.458 133.043C122.026 130.827 118.169 127.791 114.886 123.934C111.603 120.076 109.018 115.562 107.13 110.392C105.243 105.221 104.299 99.7227 104.299 93.8957C104.299 87.9866 105.243 82.4879 107.13 77.3995C109.018 72.2291 111.603 67.7152 114.886 63.8579C118.169 60.0006 122.026 56.964 126.458 54.7481C130.972 52.5321 135.814 51.4242 140.984 51.4242C146.401 51.4242 151.202 52.2859 155.388 54.0094C159.573 55.6508 163.184 58.0309 166.221 61.1496V53.8863H189.611ZM147.017 118.148C149.971 118.148 152.638 117.532 155.018 116.301C157.398 115.07 159.409 113.387 161.051 111.254C162.774 109.12 164.046 106.576 164.867 103.621C165.77 100.667 166.221 97.4658 166.221 94.0188C166.221 90.5718 165.77 87.3711 164.867 84.4166C164.046 81.462 162.774 78.9178 161.051 76.784C159.409 74.6502 157.398 72.9677 155.018 71.7367C152.638 70.5056 149.971 69.8901 147.017 69.8901C144.062 69.8901 141.395 70.5056 139.015 71.7367C136.635 72.9677 134.583 74.6502 132.859 76.784C131.218 78.9178 129.946 81.462 129.043 84.4166C128.14 87.3711 127.689 90.5718 127.689 94.0188C127.689 97.4658 128.14 100.667 129.043 103.621C129.946 106.576 131.218 109.12 132.859 111.254C134.583 113.387 136.635 115.07 139.015 116.301C141.395 117.532 144.062 118.148 147.017 118.148Z" fill="#FFF7DE"/>
<path d="M55.0283 21.6328C61.3477 21.6328 66.8875 22.5356 71.6476 24.3412C76.4898 26.1467 80.5112 28.6088 83.712 31.7275C86.9948 34.7641 89.4569 38.2932 91.0983 42.3146C92.7397 46.254 93.5604 50.3986 93.5604 54.7483C93.5604 56.4718 93.2732 58.3184 92.6987 60.2881C92.2063 62.1757 91.4676 64.0223 90.4828 65.8278C89.4979 67.5513 88.3079 69.1517 86.9127 70.629C85.5175 72.0242 83.9992 73.0911 82.3578 73.8297C85.1482 75.0608 87.5283 76.6611 89.4979 78.6308C91.5497 80.6005 93.2322 82.7754 94.5453 85.1555C95.8584 87.5355 96.8433 90.0797 97.4998 92.788C98.1564 95.4143 98.4847 98.0816 98.4847 100.79C98.4847 105.14 97.664 109.325 96.0226 113.347C94.3811 117.286 91.919 120.774 88.6362 123.811C85.4354 126.929 81.414 129.391 76.5718 131.197C71.8117 133.003 66.272 133.905 59.9525 133.905H23.3901C15.1831 133.905 9.23294 132.059 5.53976 128.366C1.84659 124.672 0 118.722 0 110.515V21.6328H55.0283ZM23.3901 109.284C23.3901 111.5 23.8415 113.1 24.7443 114.085C25.7291 114.988 27.3295 115.439 29.5454 115.439H62.0453C64.3433 115.439 66.4361 115.07 68.3237 114.332C70.2114 113.511 71.8117 112.444 73.1249 111.131C74.5201 109.736 75.587 108.176 76.3256 106.453C77.0642 104.647 77.4336 102.76 77.4336 100.79C77.4336 96.8505 76.0384 93.5677 73.248 90.9414C70.4576 88.2331 66.7234 86.8789 62.0453 86.8789H23.3901V109.284ZM57.1211 68.6593C59.4191 68.6593 61.5119 68.2489 63.3995 67.4282C65.2871 66.5254 66.8875 65.3764 68.2006 63.9813C69.5958 62.5861 70.6628 60.9857 71.4014 59.1801C72.14 57.3746 72.5093 55.4869 72.5093 53.5173C72.5093 49.5779 71.1141 46.3771 68.3237 43.915C65.5333 41.3708 61.7991 40.0987 57.1211 40.0987H23.3901V68.6593H57.1211Z" fill="#FFF7DE"/>
<path d="M429.292 25.3127C459.763 25.3127 484.465 50.0138 484.465 80.4846C484.465 110.955 459.763 135.656 429.292 135.656H415.185C407.532 135.656 401.328 129.452 401.328 121.8V114.495H423.246C442.029 114.495 457.256 99.2679 457.256 80.4846C457.256 61.7013 442.029 46.4748 423.246 46.4748H401.328V39.1682C401.328 31.5157 407.532 25.3127 415.185 25.3127H429.292Z" fill="url(#paint0_linear_596_1996)"/>
<path d="M429.292 25.3127C459.763 25.3127 484.465 50.0138 484.465 80.4846C484.465 110.955 459.763 135.656 429.292 135.656H415.185C407.532 135.656 401.328 129.452 401.328 121.8V114.495H423.246C442.029 114.495 457.256 99.2679 457.256 80.4846C457.256 61.7013 442.029 46.4748 423.246 46.4748H401.328V39.1682C401.328 31.5157 407.532 25.3127 415.185 25.3127H429.292Z" fill="url(#paint1_linear_596_1996)"/>
<path d="M429.292 25.3127C459.763 25.3127 484.465 50.0138 484.465 80.4846C484.465 110.955 459.763 135.656 429.292 135.656H415.185C407.532 135.656 401.328 129.452 401.328 121.8V114.495H423.246C442.029 114.495 457.256 99.2679 457.256 80.4846C457.256 61.7013 442.029 46.4748 423.246 46.4748H401.328V39.1682C401.328 31.5157 407.532 25.3127 415.185 25.3127H429.292Z" fill="url(#paint2_linear_596_1996)"/>
<path d="M498.583 54.2721L518.233 40.6681" stroke="#316C6D" stroke-width="6.04626" stroke-linecap="round"/>
<path d="M498.583 54.2721L518.233 40.6681" stroke="url(#paint3_linear_596_1996)" stroke-width="6.04626" stroke-linecap="round"/>
<path d="M498.583 54.2721L518.233 40.6681" stroke="url(#paint4_linear_596_1996)" stroke-width="6.04626" stroke-linecap="round"/>
<path d="M498.678 104.655L518.328 118.259" stroke="#316C6D" stroke-width="6.04626" stroke-linecap="round"/>
<path d="M498.678 104.655L518.328 118.259" stroke="url(#paint5_linear_596_1996)" stroke-width="6.04626" stroke-linecap="round"/>
<path d="M498.678 104.655L518.328 118.259" stroke="url(#paint6_linear_596_1996)" stroke-width="6.04626" stroke-linecap="round"/>
<path d="M503.118 78.4567H528.815" stroke="#316C6D" stroke-width="6.04626" stroke-linecap="round"/>
<path d="M503.118 78.4567H528.815" stroke="url(#paint7_linear_596_1996)" stroke-width="6.04626" stroke-linecap="round"/>
<path d="M503.118 78.4567H528.815" stroke="url(#paint8_linear_596_1996)" stroke-width="6.04626" stroke-linecap="round"/>
<path d="M344.403 64.8527L306.614 52.7602" stroke="url(#paint9_linear_596_1996)" stroke-width="3.02313"/>
<circle cx="305.103" cy="51.2487" r="7.55783" fill="url(#paint10_linear_596_1996)"/>
<circle cx="305.103" cy="51.2487" r="7.55783" fill="#ED702D"/>
<path d="M345.915 96.5957L306.614 108.688" stroke="url(#paint11_linear_596_1996)" stroke-width="3.02313"/>
<circle cx="7.55783" cy="7.55783" r="7.55783" transform="matrix(1 0 0 -1 297.545 117.758)" fill="url(#paint12_linear_596_1996)"/>
<circle cx="7.55783" cy="7.55783" r="7.55783" transform="matrix(1 0 0 -1 297.545 117.758)" fill="#ED702D"/>
<path d="M379.17 51.2488H367.077C351.216 51.2488 338.358 64.107 338.358 79.9685C338.358 95.83 351.216 108.688 367.077 108.688H379.17V51.2488Z" fill="url(#paint13_linear_596_1996)"/>
<path d="M379.17 51.2488H367.077C351.216 51.2488 338.358 64.107 338.358 79.9685C338.358 95.83 351.216 108.688 367.077 108.688H379.17V51.2488Z" fill="url(#paint14_linear_596_1996)"/>
<path d="M374.636 26.3079C374.609 8.3218 392.478 -4.21015 409.38 1.94126C426.281 8.09286 431.914 29.1787 420.333 42.9395L389.982 78.9986L420.333 115.059C431.915 128.82 426.281 149.907 409.38 156.059C392.478 162.21 374.609 149.678 374.636 131.692L374.714 79.0001L374.636 26.3079Z" fill="url(#paint15_linear_596_1996)"/>
<defs>
<linearGradient id="paint0_linear_596_1996" x1="484.465" y1="80.4846" x2="401.328" y2="80.4846" gradientUnits="userSpaceOnUse">
<stop stop-color="#609B9B"/>
<stop offset="1" stop-color="#316C6D"/>
</linearGradient>
<linearGradient id="paint1_linear_596_1996" x1="401.328" y1="80.4846" x2="484.465" y2="80.4846" gradientUnits="userSpaceOnUse">
<stop stop-color="#8A661F"/>
<stop offset="1" stop-color="#D4A638"/>
</linearGradient>
<linearGradient id="paint2_linear_596_1996" x1="401.328" y1="80.4846" x2="503.211" y2="80.4846" gradientUnits="userSpaceOnUse">
<stop stop-color="#ED702D"/>
<stop offset="1" stop-color="#F19D52"/>
</linearGradient>
<linearGradient id="paint3_linear_596_1996" x1="522.851" y1="37.5141" x2="500.274" y2="53.2756" gradientUnits="userSpaceOnUse">
<stop stop-color="#8A661F"/>
<stop offset="1" stop-color="#D4A638"/>
</linearGradient>
<linearGradient id="paint4_linear_596_1996" x1="522.851" y1="37.5141" x2="500.274" y2="53.2756" gradientUnits="userSpaceOnUse">
<stop stop-color="#ED702D"/>
<stop offset="1" stop-color="#F19D52"/>
</linearGradient>
<linearGradient id="paint5_linear_596_1996" x1="522.946" y1="121.413" x2="500.368" y2="105.652" gradientUnits="userSpaceOnUse">
<stop stop-color="#8A661F"/>
<stop offset="1" stop-color="#D4A638"/>
</linearGradient>
<linearGradient id="paint6_linear_596_1996" x1="522.946" y1="121.413" x2="500.368" y2="105.652" gradientUnits="userSpaceOnUse">
<stop stop-color="#ED702D"/>
<stop offset="1" stop-color="#F19D52"/>
</linearGradient>
<linearGradient id="paint7_linear_596_1996" x1="534.861" y1="78.7887" x2="534.254" y2="83.8211" gradientUnits="userSpaceOnUse">
<stop stop-color="#8A661F"/>
<stop offset="1" stop-color="#D4A638"/>
</linearGradient>
<linearGradient id="paint8_linear_596_1996" x1="534.853" y1="78.2249" x2="534.57" y2="81.7379" gradientUnits="userSpaceOnUse">
<stop stop-color="#ED702D"/>
<stop offset="1" stop-color="#F19D52"/>
</linearGradient>
<linearGradient id="paint9_linear_596_1996" x1="325.509" y1="52.7602" x2="325.509" y2="64.8527" gradientUnits="userSpaceOnUse">
<stop stop-color="#E0E0E0"/>
<stop offset="1" stop-color="#A2A2A2"/>
</linearGradient>
<linearGradient id="paint10_linear_596_1996" x1="312.661" y1="51.2487" x2="297.545" y2="51.2487" gradientUnits="userSpaceOnUse">
<stop stop-color="#609B9B"/>
<stop offset="1" stop-color="#316C6D"/>
</linearGradient>
<linearGradient id="paint11_linear_596_1996" x1="326.265" y1="108.688" x2="326.265" y2="96.5957" gradientUnits="userSpaceOnUse">
<stop stop-color="#E0E0E0"/>
<stop offset="1" stop-color="#A2A2A2"/>
</linearGradient>
<linearGradient id="paint12_linear_596_1996" x1="15.1157" y1="7.55782" x2="0" y2="7.55782" gradientUnits="userSpaceOnUse">
<stop stop-color="#609B9B"/>
<stop offset="1" stop-color="#316C6D"/>
</linearGradient>
<linearGradient id="paint13_linear_596_1996" x1="379.17" y1="79.9685" x2="338.358" y2="79.9685" gradientUnits="userSpaceOnUse">
<stop stop-color="#8A661F"/>
<stop offset="1" stop-color="#D4A638"/>
</linearGradient>
<linearGradient id="paint14_linear_596_1996" x1="379.17" y1="79.9685" x2="329.155" y2="79.9685" gradientUnits="userSpaceOnUse">
<stop stop-color="#ED702D"/>
<stop offset="1" stop-color="#F19D52"/>
</linearGradient>
<linearGradient id="paint15_linear_596_1996" x1="454.087" y1="78.9588" x2="374.73" y2="78.9588" gradientUnits="userSpaceOnUse">
<stop stop-color="#FBFBC7"/>
<stop offset="1" stop-color="#F19D52"/>
</linearGradient>
</defs>
</svg>
