<svg width="31" height="31" viewBox="0 0 31 31" fill="none" xmlns="http://www.w3.org/2000/svg">
<path d="M30.1059 27.692L24.3261 21.9292C26.1909 19.5534 27.2027 16.6197 27.199 13.5995C27.199 10.9098 26.4014 8.28044 24.907 6.04402C23.4127 3.8076 21.2888 2.06452 18.8038 1.03521C16.3188 0.0058924 13.5844 -0.263423 10.9464 0.261316C8.30832 0.786055 5.88512 2.08128 3.9832 3.9832C2.08128 5.88512 0.786055 8.30832 0.261316 10.9464C-0.263423 13.5844 0.0058924 16.3188 1.03521 18.8038C2.06452 21.2888 3.8076 23.4127 6.04402 24.907C8.28044 26.4014 10.9098 27.199 13.5995 27.199C16.6197 27.2027 19.5534 26.1909 21.9292 24.3261L27.692 30.1059C27.85 30.2652 28.038 30.3917 28.2451 30.478C28.4523 30.5643 28.6745 30.6087 28.8989 30.6087C29.1233 30.6087 29.3455 30.5643 29.5527 30.478C29.7598 30.3917 29.9478 30.2652 30.1059 30.1059C30.2652 29.9478 30.3917 29.7598 30.478 29.5527C30.5643 29.3455 30.6087 29.1233 30.6087 28.8989C30.6087 28.6745 30.5643 28.4523 30.478 28.2451C30.3917 28.038 30.2652 27.85 30.1059 27.692ZM3.39988 13.5995C3.39988 11.5822 3.99807 9.61021 5.11882 7.93289C6.23957 6.25557 7.83253 4.94826 9.69627 4.17628C11.56 3.40429 13.6108 3.2023 15.5893 3.59586C17.5679 3.98941 19.3853 4.96083 20.8117 6.38727C22.2381 7.81371 23.2096 9.63111 23.6031 11.6096C23.9967 13.5882 23.7947 15.639 23.0227 17.5027C22.2507 19.3664 20.9434 20.9594 19.2661 22.0802C17.5888 23.2009 15.6168 23.7991 13.5995 23.7991C10.8944 23.7991 8.30007 22.7245 6.38727 20.8117C4.47448 18.8989 3.39988 16.3046 3.39988 13.5995Z" fill="#FDFDFD"/>
</svg>
